<?xml version="1.0" encoding="UTF-8" standalone="no"?>
<svg
   xmlns:dc="http://purl.org/dc/elements/1.1/"
   xmlns:cc="http://creativecommons.org/ns#"
   xmlns:rdf="http://www.w3.org/1999/02/22-rdf-syntax-ns#"
   xmlns:svg="http://www.w3.org/2000/svg"
   xmlns="http://www.w3.org/2000/svg"
   id="svg8"
   version="1.1"
   viewBox="0 0 300 297"
   height="125px"
   width="125px">
  <defs
     id="defs2" />
  <metadata
     id="metadata5">
    <rdf:RDF>
      <cc:Work
         rdf:about="">
        <dc:format>image/svg+xml</dc:format>
        <dc:type
           rdf:resource="http://purl.org/dc/dcmitype/StillImage" />
        <dc:title></dc:title>
      </cc:Work>
    </rdf:RDF>
  </metadata>
  <g
     id="layer1">
    <g
       style="stroke-width:6.72311549;stroke-miterlimit:4;stroke-dasharray:none"
       transform="matrix(0.87399823,0,0,0.91127783,461.59636,57.486141)"
       id="g932">
      <path
         style="fill:#000000;fill-opacity:1;stroke:#000000;stroke-width:25.41020058;stroke-linecap:round;stroke-linejoin:round;stroke-miterlimit:4;stroke-dasharray:none;stroke-opacity:1;paint-order:fill markers stroke"
         d="m -1432.5,259.83398 c -4.9737,0.005 -9.3488,0.0156 -13.0273,0.0156 -234.8725,0 -516.1895,144.20752 -516.1895,349.51172 0,205.30416 240.9107,335.37109 475.7832,335.37109 234.8725,0 483.8633,-81.57861 483.8633,-286.88281 0,-53.39891 -95.8317,-77.68349 -175.9043,-106.51172 -24.9068,53.26233 -76.8985,93.37101 -131.1641,114.55469 -70.5096,22.42503 -148.878,42.53248 -221.8183,19.05273 -32.6207,-3.14328 -52.9727,-43.22827 -34.5762,-70.79883 41.1452,-36.39027 85.994,-73.23697 108.8086,-125.05664 15.5337,-48.33619 35.0842,-101.89017 82.3516,-127.87695 16.3101,-12.45509 43.7678,-4.4322 50.2929,-29.17383 16.5276,-22.42991 33.5726,-44.44519 51.0352,-66.11914 -59.1598,-5.89207 -124.2538,-6.12228 -159.4551,-6.08594 z"
         transform="scale(0.26458333)"
         id="path884" />
      <g
         style="stroke-width:6.72311549;stroke-miterlimit:4;stroke-dasharray:none"
         id="g882"
         transform="translate(11.225321,-10.690781)">
        <g
           style="stroke-width:6.72311549;stroke-miterlimit:4;stroke-dasharray:none"
           transform="rotate(39.923535,-302.98335,76.358834)"
           id="g869" />
      </g>
      <g
         style="stroke-width:6.72311549;stroke-miterlimit:4;stroke-dasharray:none"
         id="g903"
         transform="translate(11.7706,-10.696157)">
        <g
           style="stroke-width:6.72311549;stroke-miterlimit:4;stroke-dasharray:none"
           id="g899"
           transform="rotate(39.923535,-302.98335,76.358834)">
          <path
             id="path887"
             d="m -302.89184,-75.134257 c -12.02271,-0.324335 -29.63132,210.162847 -17.3528,214.690467 12.27852,4.52762 24.19053,4.15171 34.70561,0 10.51508,-4.15171 -5.3301,-214.366132 -17.35281,-214.690467 z"
             style="fill:none;stroke:#000000;stroke-width:6.72311549;stroke-linecap:butt;stroke-linejoin:round;stroke-miterlimit:4;stroke-dasharray:none;stroke-opacity:1" />
          <path
             id="path889"
             d="m -322.64821,101.65753 c 10.75908,-3.20111 21.9663,-4.129325 39.39891,0 v 0.0469"
             style="fill:none;stroke:#000000;stroke-width:6.72311549;stroke-linecap:round;stroke-linejoin:round;stroke-miterlimit:4;stroke-dasharray:none;stroke-opacity:1" />
          <path
             style="fill:none;stroke:#000000;stroke-width:6.72311549;stroke-linecap:round;stroke-linejoin:round;stroke-miterlimit:4;stroke-dasharray:none;stroke-opacity:1"
             d="m -322.64822,115.97339 c 11.83178,-3.94723 24.96285,-4.26239 39.39892,0 v 0.0468"
             id="path891" />
          <path
             id="path893"
             d="m -322.0535,130.31481 c 11.20784,-4.24759 23.42112,-5.41716 37.69492,0 v 0.0473"
             style="fill:none;stroke:#000000;stroke-width:6.72311549;stroke-linecap:round;stroke-linejoin:round;stroke-miterlimit:4;stroke-dasharray:none;stroke-opacity:1" />
          <path
             id="path895"
             d="m -284.02734,140.10909 c 5.33004,4.93365 8.36175,13.34413 8.36175,26.50923 0,24.20786 -32.86242,62.4864 -48.80418,62.4864 5.19846,-30.56251 5.17784,-33.22863 -4.64973,-62.4864 -4.24462,-12.63671 0.58323,-21.44241 7.25884,-26.46186"
             style="fill:none;fill-opacity:1;stroke:#000000;stroke-width:6.72311549;stroke-linecap:round;stroke-linejoin:round;stroke-miterlimit:4;stroke-dasharray:none;stroke-opacity:1;paint-order:fill markers stroke" />
          <path
             id="path897"
             d="m -324.5937,173.58592 c 0,0 10.24866,-5.01814 15.60259,-4.8592 5.4222,0.16096 10.18629,5.49463 15.6026,5.85347 5.2822,0.34994 15.60258,-3.66683 15.60258,-3.66683"
             style="fill:none;stroke:#000000;stroke-width:6.72311549;stroke-linecap:round;stroke-linejoin:round;stroke-miterlimit:4;stroke-dasharray:none;stroke-opacity:1" />
        </g>
        <path
           style="fill:#000000;fill-opacity:1;stroke:#000000;stroke-width:25.41020058;stroke-linecap:round;stroke-linejoin:round;stroke-miterlimit:4;stroke-dasharray:none;stroke-opacity:1;paint-order:fill markers stroke"
           d="m -1526.4191,683.08101 c -14.0062,-1.73042 -28.4975,-5.14563 -27.892,-6.57342 0.3399,-0.80131 8.8001,-8.7776 18.8006,-17.72509 24.9315,-22.30627 47.1869,-45.99425 57.5496,-61.25402 4.7722,-7.02734 14.5124,-24.91258 21.645,-39.74496 7.1325,-14.83238 13.2098,-26.96797 13.5051,-26.96797 2.7807,0 30.8692,10.71065 39.3162,14.99197 10.2276,5.18379 11.2188,6.39896 18.777,23.01956 16.2415,35.71533 19.5376,39.4288 47.1346,53.10369 20.3951,10.10616 20.7835,8.90283 -7.4905,23.20826 -44.2885,22.40807 -97.7075,35.81392 -151.041,37.90475 -12.7784,0.50096 -26.4155,0.51771 -30.3046,0.0372 z"
           id="path901"
           transform="scale(0.26458333)" />
      </g>
    </g>
  </g>
</svg>
