<?xml version="1.0" encoding="UTF-8" standalone="no"?>
<svg
   xmlns:dc="http://purl.org/dc/elements/1.1/"
   xmlns:cc="http://creativecommons.org/ns#"
   xmlns:rdf="http://www.w3.org/1999/02/22-rdf-syntax-ns#"
   xmlns:svg="http://www.w3.org/2000/svg"
   xmlns="http://www.w3.org/2000/svg"
   id="svg8"
   version="1.1"
   viewBox="0 0 300 300"
   height="125px"
   width="125px">
  <defs
     id="defs2" />
  <metadata
     id="metadata5">
    <rdf:RDF>
      <cc:Work
         rdf:about="">
        <dc:format>image/svg+xml</dc:format>
        <dc:type
           rdf:resource="http://purl.org/dc/dcmitype/StillImage" />
        <dc:title></dc:title>
      </cc:Work>
    </rdf:RDF>
  </metadata>
  <g
     transform="translate(0,3)"
     id="layer1">
    <path
       d="m 49.936454,27.687079 c -1.641244,-5.16 -8.918396,-6.25093 -11.864223,-2.28214 m -20.185806,2.28214 c 1.641235,-5.16 8.918387,-6.25093 11.864214,-2.28214 m 33.414342,6.13289 A 29.253536,29.253536 0 0 1 33.911439,60.791359 29.253536,29.253536 0 0 1 4.6579,31.537829 29.253536,29.253536 0 0 1 33.911439,2.2842999 29.253536,29.253536 0 0 1 63.164981,31.537829 Z M 43.16858,43.347659 c -3.700774,6.85593 -15.412801,6.39903 -18.515724,0"
       style="fill:none;stroke:#000000;stroke-width:6;stroke-linecap:round;stroke-linejoin:miter;stroke-miterlimit:4;stroke-dasharray:none;stroke-opacity:1"
       id="path840" />
    <path
       id="path858"
       style="fill:none;stroke:#000000;stroke-width:6;stroke-linecap:round;stroke-linejoin:miter;stroke-miterlimit:4;stroke-dasharray:none;stroke-opacity:1"
       d="m 127.32881,27.687079 c -1.64124,-5.16 -8.91839,-6.25093 -11.86422,-2.28214 m -20.185794,2.28214 c 1.641232,-5.16 8.918384,-6.25093 11.864204,-2.28214 m 33.41435,6.13289 A 29.253536,29.253536 0 0 1 111.3038,60.791369 29.253536,29.253536 0 0 1 82.050272,31.537829 29.253536,29.253536 0 0 1 111.3038,2.2842999 29.253536,29.253536 0 0 1 140.55735,31.537829 Z m -19.99641,11.80983 c -3.70077,6.85593 -15.4128,6.39903 -18.51572,0" />
    <path
       d="m 204.72119,27.687079 c -1.64124,-5.16 -8.9184,-6.25093 -11.86422,-2.28214 m -20.18581,2.28214 c 1.64124,-5.16 8.91839,-6.25093 11.86422,-2.28214 m 33.41434,6.13289 a 29.253536,29.253536 0 0 1 -29.25354,29.25353 29.253536,29.253536 0 0 1 -29.25354,-29.25353 29.253536,29.253536 0 0 1 29.25354,-29.2535291 29.253536,29.253536 0 0 1 29.25354,29.2535291 z m -19.9964,11.80983 c -3.70078,6.85593 -15.4128,6.39903 -18.51573,0"
       style="fill:none;stroke:#000000;stroke-width:6;stroke-linecap:round;stroke-linejoin:miter;stroke-miterlimit:4;stroke-dasharray:none;stroke-opacity:1"
       id="path860" />
    <path
       id="path881"
       style="fill:none;stroke:#000000;stroke-width:6;stroke-linecap:round;stroke-linejoin:miter;stroke-miterlimit:4;stroke-dasharray:none;stroke-opacity:1"
       d="m 282.11356,27.687079 c -1.64125,-5.16 -8.9184,-6.25093 -11.86423,-2.28214 m -20.1858,2.28214 c 1.64123,-5.16 8.91838,-6.25093 11.86421,-2.28214 m 33.41435,6.13289 A 29.253536,29.253536 0 0 1 266.08854,60.791359 29.253536,29.253536 0 0 1 236.835,31.537829 29.253536,29.253536 0 0 1 266.08854,2.2842999 29.253536,29.253536 0 0 1 295.34209,31.537829 Z m -19.99641,11.80983 c -3.70077,6.85593 -15.4128,6.39903 -18.51572,0" />
    <path
       id="path949"
       style="fill:none;stroke:#000000;stroke-width:6;stroke-linecap:round;stroke-linejoin:miter;stroke-miterlimit:4;stroke-dasharray:none;stroke-opacity:1"
       d="m 49.936454,27.687079 c -1.641244,-5.16 -8.918396,-6.25093 -11.864223,-2.28214 m -20.185806,2.28214 c 1.641235,-5.16 8.918387,-6.25093 11.864214,-2.28214 m 33.414342,6.13289 A 29.253536,29.253536 0 0 1 33.911439,60.791359 29.253536,29.253536 0 0 1 4.6579,31.537829 29.253536,29.253536 0 0 1 33.911439,2.2842999 29.253536,29.253536 0 0 1 63.164981,31.537829 Z M 43.16858,43.347659 c -3.700774,6.85593 -15.412801,6.39903 -18.515724,0" />
    <path
       d="m 127.32881,27.687079 c -1.64124,-5.16 -8.91839,-6.25093 -11.86422,-2.28214 m -20.185794,2.28214 c 1.641232,-5.16 8.918384,-6.25093 11.864204,-2.28214 m 33.41435,6.13289 A 29.253536,29.253536 0 0 1 111.3038,60.791369 29.253536,29.253536 0 0 1 82.050272,31.537829 29.253536,29.253536 0 0 1 111.3038,2.2842999 29.253536,29.253536 0 0 1 140.55735,31.537829 Z m -19.99641,11.80983 c -3.70077,6.85593 -15.4128,6.39903 -18.51572,0"
       style="fill:none;stroke:#000000;stroke-width:6;stroke-linecap:round;stroke-linejoin:miter;stroke-miterlimit:4;stroke-dasharray:none;stroke-opacity:1"
       id="path951" />
    <path
       id="path953"
       style="fill:none;stroke:#000000;stroke-width:6;stroke-linecap:round;stroke-linejoin:miter;stroke-miterlimit:4;stroke-dasharray:none;stroke-opacity:1"
       d="m 204.72119,27.687079 c -1.64124,-5.16 -8.9184,-6.25093 -11.86422,-2.28214 m -20.18581,2.28214 c 1.64124,-5.16 8.91839,-6.25093 11.86422,-2.28214 m 33.41434,6.13289 a 29.253536,29.253536 0 0 1 -29.25354,29.25353 29.253536,29.253536 0 0 1 -29.25354,-29.25353 29.253536,29.253536 0 0 1 29.25354,-29.2535291 29.253536,29.253536 0 0 1 29.25354,29.2535291 z m -19.9964,11.80983 c -3.70078,6.85593 -15.4128,6.39903 -18.51573,0" />
    <path
       d="m 282.11356,27.687079 c -1.64125,-5.16 -8.9184,-6.25093 -11.86423,-2.28214 m -20.1858,2.28214 c 1.64123,-5.16 8.91838,-6.25093 11.86421,-2.28214 m 33.41435,6.13289 A 29.253536,29.253536 0 0 1 266.08854,60.791359 29.253536,29.253536 0 0 1 236.835,31.537829 29.253536,29.253536 0 0 1 266.08854,2.2842999 29.253536,29.253536 0 0 1 295.34209,31.537829 Z m -19.99641,11.80983 c -3.70077,6.85593 -15.4128,6.39903 -18.51572,0"
       style="fill:none;stroke:#000000;stroke-width:6;stroke-linecap:round;stroke-linejoin:miter;stroke-miterlimit:4;stroke-dasharray:none;stroke-opacity:1"
       id="path955" />
    <path
       id="path975"
       style="fill:none;stroke:#000000;stroke-width:6;stroke-linecap:round;stroke-linejoin:miter;stroke-miterlimit:4;stroke-dasharray:none;stroke-opacity:1"
       d="M 49.936454,105.01707 C 48.29521,99.857065 41.018058,98.766135 38.072231,102.73493 m -20.185806,2.28214 c 1.641235,-5.160005 8.918387,-6.250935 11.864214,-2.28214 m 33.414342,6.13289 A 29.253536,29.253536 0 0 1 33.911439,138.12135 29.253536,29.253536 0 0 1 4.6579,108.86782 29.253536,29.253536 0 0 1 33.911439,79.614286 29.253536,29.253536 0 0 1 63.164981,108.86782 Z M 43.16858,120.67765 c -3.700774,6.85593 -15.412801,6.39903 -18.515724,0" />
    <path
       d="m 127.32881,105.01707 c -1.64124,-5.160005 -8.91839,-6.250935 -11.86422,-2.28214 m -20.185794,2.28214 c 1.641232,-5.160005 8.918384,-6.250935 11.864204,-2.28214 m 33.41435,6.13289 A 29.253536,29.253536 0 0 1 111.3038,138.12135 29.253536,29.253536 0 0 1 82.050272,108.86782 29.253536,29.253536 0 0 1 111.3038,79.614286 29.253536,29.253536 0 0 1 140.55735,108.86782 Z m -19.99641,11.80983 c -3.70077,6.85593 -15.4128,6.39903 -18.51572,0"
       style="fill:none;stroke:#000000;stroke-width:6;stroke-linecap:round;stroke-linejoin:miter;stroke-miterlimit:4;stroke-dasharray:none;stroke-opacity:1"
       id="path977" />
    <path
       id="path979"
       style="fill:none;stroke:#000000;stroke-width:6;stroke-linecap:round;stroke-linejoin:miter;stroke-miterlimit:4;stroke-dasharray:none;stroke-opacity:1"
       d="m 204.72119,105.01707 c -1.64124,-5.160005 -8.9184,-6.250935 -11.86422,-2.28214 m -20.18581,2.28214 c 1.64124,-5.160005 8.91839,-6.250935 11.86422,-2.28214 m 33.41434,6.13289 a 29.253536,29.253536 0 0 1 -29.25354,29.25353 29.253536,29.253536 0 0 1 -29.25354,-29.25353 29.253536,29.253536 0 0 1 29.25354,-29.253534 29.253536,29.253536 0 0 1 29.25354,29.253534 z m -19.9964,11.80983 c -3.70078,6.85593 -15.4128,6.39903 -18.51573,0" />
    <path
       d="m 282.11356,105.01707 c -1.64125,-5.160005 -8.9184,-6.250935 -11.86423,-2.28214 m -20.1858,2.28214 c 1.64123,-5.160005 8.91838,-6.250935 11.86421,-2.28214 m 33.41435,6.13289 a 29.253536,29.253536 0 0 1 -29.25355,29.25353 29.253536,29.253536 0 0 1 -29.25354,-29.25353 29.253536,29.253536 0 0 1 29.25354,-29.253534 29.253536,29.253536 0 0 1 29.25355,29.253534 z m -19.99641,11.80983 c -3.70077,6.85593 -15.4128,6.39903 -18.51572,0"
       style="fill:none;stroke:#000000;stroke-width:6;stroke-linecap:round;stroke-linejoin:miter;stroke-miterlimit:4;stroke-dasharray:none;stroke-opacity:1"
       id="path981" />
    <path
       d="M 49.936454,105.01707 C 48.29521,99.857065 41.018058,98.766135 38.072231,102.73493 m -20.185806,2.28214 c 1.641235,-5.160005 8.918387,-6.250935 11.864214,-2.28214 m 33.414342,6.13289 A 29.253536,29.253536 0 0 1 33.911439,138.12135 29.253536,29.253536 0 0 1 4.6579,108.86782 29.253536,29.253536 0 0 1 33.911439,79.614286 29.253536,29.253536 0 0 1 63.164981,108.86782 Z M 43.16858,120.67765 c -3.700774,6.85593 -15.412801,6.39903 -18.515724,0"
       style="fill:none;stroke:#000000;stroke-width:6;stroke-linecap:round;stroke-linejoin:miter;stroke-miterlimit:4;stroke-dasharray:none;stroke-opacity:1"
       id="path983" />
    <path
       id="path985"
       style="fill:none;stroke:#000000;stroke-width:6;stroke-linecap:round;stroke-linejoin:miter;stroke-miterlimit:4;stroke-dasharray:none;stroke-opacity:1"
       d="m 127.32881,105.01707 c -1.64124,-5.160005 -8.91839,-6.250935 -11.86422,-2.28214 m -20.185794,2.28214 c 1.641232,-5.160005 8.918384,-6.250935 11.864204,-2.28214 m 33.41435,6.13289 A 29.253536,29.253536 0 0 1 111.3038,138.12135 29.253536,29.253536 0 0 1 82.050272,108.86782 29.253536,29.253536 0 0 1 111.3038,79.614286 29.253536,29.253536 0 0 1 140.55735,108.86782 Z m -19.99641,11.80983 c -3.70077,6.85593 -15.4128,6.39903 -18.51572,0" />
    <path
       d="m 204.72119,105.01707 c -1.64124,-5.160005 -8.9184,-6.250935 -11.86422,-2.28214 m -20.18581,2.28214 c 1.64124,-5.160005 8.91839,-6.250935 11.86422,-2.28214 m 33.41434,6.13289 a 29.253536,29.253536 0 0 1 -29.25354,29.25353 29.253536,29.253536 0 0 1 -29.25354,-29.25353 29.253536,29.253536 0 0 1 29.25354,-29.253534 29.253536,29.253536 0 0 1 29.25354,29.253534 z m -19.9964,11.80983 c -3.70078,6.85593 -15.4128,6.39903 -18.51573,0"
       style="fill:none;stroke:#000000;stroke-width:6;stroke-linecap:round;stroke-linejoin:miter;stroke-miterlimit:4;stroke-dasharray:none;stroke-opacity:1"
       id="path987" />
    <path
       id="path989"
       style="fill:none;stroke:#000000;stroke-width:6;stroke-linecap:round;stroke-linejoin:miter;stroke-miterlimit:4;stroke-dasharray:none;stroke-opacity:1"
       d="m 282.11356,105.01707 c -1.64125,-5.160005 -8.9184,-6.250935 -11.86423,-2.28214 m -20.1858,2.28214 c 1.64123,-5.160005 8.91838,-6.250935 11.86421,-2.28214 m 33.41435,6.13289 a 29.253536,29.253536 0 0 1 -29.25355,29.25353 29.253536,29.253536 0 0 1 -29.25354,-29.25353 29.253536,29.253536 0 0 1 29.25354,-29.253534 29.253536,29.253536 0 0 1 29.25355,29.253534 z m -19.99641,11.80983 c -3.70077,6.85593 -15.4128,6.39903 -18.51572,0" />
    <path
       d="m 49.936454,182.34705 c -1.641244,-5.16 -8.918396,-6.25093 -11.864223,-2.28214 m -20.185806,2.28214 c 1.641235,-5.16 8.918387,-6.25093 11.864214,-2.28214 m 33.414342,6.13289 A 29.253536,29.253536 0 0 1 33.911439,215.45133 29.253536,29.253536 0 0 1 4.6579,186.1978 29.253536,29.253536 0 0 1 33.911439,156.94428 29.253536,29.253536 0 0 1 63.164981,186.1978 Z M 43.16858,198.00763 c -3.700774,6.85593 -15.412801,6.39903 -18.515724,0"
       style="fill:none;stroke:#000000;stroke-width:6;stroke-linecap:round;stroke-linejoin:miter;stroke-miterlimit:4;stroke-dasharray:none;stroke-opacity:1"
       id="path993" />
    <path
       id="path995"
       style="fill:none;stroke:#000000;stroke-width:6;stroke-linecap:round;stroke-linejoin:miter;stroke-miterlimit:4;stroke-dasharray:none;stroke-opacity:1"
       d="m 127.32881,182.34705 c -1.64124,-5.16 -8.91839,-6.25093 -11.86422,-2.28214 m -20.185794,2.28214 c 1.641232,-5.16 8.918384,-6.25093 11.864204,-2.28214 m 33.41435,6.13289 A 29.253536,29.253536 0 0 1 111.3038,215.45134 29.253536,29.253536 0 0 1 82.050272,186.1978 29.253536,29.253536 0 0 1 111.3038,156.94428 29.253536,29.253536 0 0 1 140.55735,186.1978 Z m -19.99641,11.80983 c -3.70077,6.85593 -15.4128,6.39903 -18.51572,0" />
    <path
       d="m 204.72119,182.34705 c -1.64124,-5.16 -8.9184,-6.25093 -11.86422,-2.28214 m -20.18581,2.28214 c 1.64124,-5.16 8.91839,-6.25093 11.86422,-2.28214 m 33.41434,6.13289 a 29.253536,29.253536 0 0 1 -29.25354,29.25353 29.253536,29.253536 0 0 1 -29.25354,-29.25353 29.253536,29.253536 0 0 1 29.25354,-29.25352 29.253536,29.253536 0 0 1 29.25354,29.25352 z m -19.9964,11.80983 c -3.70078,6.85593 -15.4128,6.39903 -18.51573,0"
       style="fill:none;stroke:#000000;stroke-width:6;stroke-linecap:round;stroke-linejoin:miter;stroke-miterlimit:4;stroke-dasharray:none;stroke-opacity:1"
       id="path997" />
    <path
       id="path999"
       style="fill:none;stroke:#000000;stroke-width:6;stroke-linecap:round;stroke-linejoin:miter;stroke-miterlimit:4;stroke-dasharray:none;stroke-opacity:1"
       d="m 282.11356,182.34705 c -1.64125,-5.16 -8.9184,-6.25093 -11.86423,-2.28214 m -20.1858,2.28214 c 1.64123,-5.16 8.91838,-6.25093 11.86421,-2.28214 m 33.41435,6.13289 a 29.253536,29.253536 0 0 1 -29.25355,29.25353 29.253536,29.253536 0 0 1 -29.25354,-29.25353 29.253536,29.253536 0 0 1 29.25354,-29.25352 29.253536,29.253536 0 0 1 29.25355,29.25352 z m -19.99641,11.80983 c -3.70077,6.85593 -15.4128,6.39903 -18.51572,0" />
    <path
       id="path1001"
       style="fill:none;stroke:#000000;stroke-width:6;stroke-linecap:round;stroke-linejoin:miter;stroke-miterlimit:4;stroke-dasharray:none;stroke-opacity:1"
       d="m 49.936454,182.34705 c -1.641244,-5.16 -8.918396,-6.25093 -11.864223,-2.28214 m -20.185806,2.28214 c 1.641235,-5.16 8.918387,-6.25093 11.864214,-2.28214 m 33.414342,6.13289 A 29.253536,29.253536 0 0 1 33.911439,215.45133 29.253536,29.253536 0 0 1 4.6579,186.1978 29.253536,29.253536 0 0 1 33.911439,156.94428 29.253536,29.253536 0 0 1 63.164981,186.1978 Z M 43.16858,198.00763 c -3.700774,6.85593 -15.412801,6.39903 -18.515724,0" />
    <path
       d="m 127.32881,182.34705 c -1.64124,-5.16 -8.91839,-6.25093 -11.86422,-2.28214 m -20.185794,2.28214 c 1.641232,-5.16 8.918384,-6.25093 11.864204,-2.28214 m 33.41435,6.13289 A 29.253536,29.253536 0 0 1 111.3038,215.45134 29.253536,29.253536 0 0 1 82.050272,186.1978 29.253536,29.253536 0 0 1 111.3038,156.94428 29.253536,29.253536 0 0 1 140.55735,186.1978 Z m -19.99641,11.80983 c -3.70077,6.85593 -15.4128,6.39903 -18.51572,0"
       style="fill:none;stroke:#000000;stroke-width:6;stroke-linecap:round;stroke-linejoin:miter;stroke-miterlimit:4;stroke-dasharray:none;stroke-opacity:1"
       id="path1003" />
    <path
       id="path1005"
       style="fill:none;stroke:#000000;stroke-width:6;stroke-linecap:round;stroke-linejoin:miter;stroke-miterlimit:4;stroke-dasharray:none;stroke-opacity:1"
       d="m 204.72119,182.34705 c -1.64124,-5.16 -8.9184,-6.25093 -11.86422,-2.28214 m -20.18581,2.28214 c 1.64124,-5.16 8.91839,-6.25093 11.86422,-2.28214 m 33.41434,6.13289 a 29.253536,29.253536 0 0 1 -29.25354,29.25353 29.253536,29.253536 0 0 1 -29.25354,-29.25353 29.253536,29.253536 0 0 1 29.25354,-29.25352 29.253536,29.253536 0 0 1 29.25354,29.25352 z m -19.9964,11.80983 c -3.70078,6.85593 -15.4128,6.39903 -18.51573,0" />
    <path
       d="m 282.11356,182.34705 c -1.64125,-5.16 -8.9184,-6.25093 -11.86423,-2.28214 m -20.1858,2.28214 c 1.64123,-5.16 8.91838,-6.25093 11.86421,-2.28214 m 33.41435,6.13289 a 29.253536,29.253536 0 0 1 -29.25355,29.25353 29.253536,29.253536 0 0 1 -29.25354,-29.25353 29.253536,29.253536 0 0 1 29.25354,-29.25352 29.253536,29.253536 0 0 1 29.25355,29.25352 z m -19.99641,11.80983 c -3.70077,6.85593 -15.4128,6.39903 -18.51572,0"
       style="fill:none;stroke:#000000;stroke-width:6;stroke-linecap:round;stroke-linejoin:miter;stroke-miterlimit:4;stroke-dasharray:none;stroke-opacity:1"
       id="path1007" />
    <path
       id="path1011"
       style="fill:none;stroke:#000000;stroke-width:6;stroke-linecap:round;stroke-linejoin:miter;stroke-miterlimit:4;stroke-dasharray:none;stroke-opacity:1"
       d="m 49.936454,259.67705 c -1.641244,-5.16001 -8.918396,-6.25094 -11.864223,-2.28215 m -20.185806,2.28215 c 1.641235,-5.16001 8.918387,-6.25094 11.864214,-2.28215 m 33.414342,6.13289 A 29.253536,29.253536 0 0 1 33.911439,292.78132 29.253536,29.253536 0 0 1 4.6579,263.52779 29.253536,29.253536 0 0 1 33.911439,234.27427 29.253536,29.253536 0 0 1 63.164981,263.52779 Z M 43.16858,275.33762 c -3.700774,6.85593 -15.412801,6.39903 -18.515724,0" />
    <path
       d="m 127.32881,259.67705 c -1.64124,-5.16001 -8.91839,-6.25094 -11.86422,-2.28215 m -20.185794,2.28215 c 1.641232,-5.16001 8.918384,-6.25094 11.864204,-2.28215 m 33.41435,6.13289 a 29.253536,29.253536 0 0 1 -29.25355,29.25355 29.253536,29.253536 0 0 1 -29.253528,-29.25355 29.253536,29.253536 0 0 1 29.253528,-29.25352 29.253536,29.253536 0 0 1 29.25355,29.25352 z m -19.99641,11.80983 c -3.70077,6.85593 -15.4128,6.39903 -18.51572,0"
       style="fill:none;stroke:#000000;stroke-width:6;stroke-linecap:round;stroke-linejoin:miter;stroke-miterlimit:4;stroke-dasharray:none;stroke-opacity:1"
       id="path1013" />
    <path
       id="path1015"
       style="fill:none;stroke:#000000;stroke-width:6;stroke-linecap:round;stroke-linejoin:miter;stroke-miterlimit:4;stroke-dasharray:none;stroke-opacity:1"
       d="m 204.72119,259.67705 c -1.64124,-5.16001 -8.9184,-6.25094 -11.86422,-2.28215 m -20.18581,2.28215 c 1.64124,-5.16001 8.91839,-6.25094 11.86422,-2.28215 m 33.41434,6.13289 a 29.253536,29.253536 0 0 1 -29.25354,29.25353 29.253536,29.253536 0 0 1 -29.25354,-29.25353 29.253536,29.253536 0 0 1 29.25354,-29.25352 29.253536,29.253536 0 0 1 29.25354,29.25352 z m -19.9964,11.80983 c -3.70078,6.85593 -15.4128,6.39903 -18.51573,0" />
    <path
       d="m 282.11356,259.67705 c -1.64125,-5.16001 -8.9184,-6.25094 -11.86423,-2.28215 m -20.1858,2.28215 c 1.64123,-5.16001 8.91838,-6.25094 11.86421,-2.28215 m 33.41435,6.13289 a 29.253536,29.253536 0 0 1 -29.25355,29.25353 29.253536,29.253536 0 0 1 -29.25354,-29.25353 29.253536,29.253536 0 0 1 29.25354,-29.25352 29.253536,29.253536 0 0 1 29.25355,29.25352 z m -19.99641,11.80983 c -3.70077,6.85593 -15.4128,6.39903 -18.51572,0"
       style="fill:none;stroke:#000000;stroke-width:6;stroke-linecap:round;stroke-linejoin:miter;stroke-miterlimit:4;stroke-dasharray:none;stroke-opacity:1"
       id="path1017" />
    <path
       d="m 49.936454,259.67705 c -1.641244,-5.16001 -8.918396,-6.25094 -11.864223,-2.28215 m -20.185806,2.28215 c 1.641235,-5.16001 8.918387,-6.25094 11.864214,-2.28215 m 33.414342,6.13289 A 29.253536,29.253536 0 0 1 33.911439,292.78132 29.253536,29.253536 0 0 1 4.6579,263.52779 29.253536,29.253536 0 0 1 33.911439,234.27427 29.253536,29.253536 0 0 1 63.164981,263.52779 Z M 43.16858,275.33762 c -3.700774,6.85593 -15.412801,6.39903 -18.515724,0"
       style="fill:none;stroke:#000000;stroke-width:6;stroke-linecap:round;stroke-linejoin:miter;stroke-miterlimit:4;stroke-dasharray:none;stroke-opacity:1"
       id="path1019" />
    <path
       id="path1021"
       style="fill:none;stroke:#000000;stroke-width:6;stroke-linecap:round;stroke-linejoin:miter;stroke-miterlimit:4;stroke-dasharray:none;stroke-opacity:1"
       d="m 127.32881,259.67705 c -1.64124,-5.16001 -8.91839,-6.25094 -11.86422,-2.28215 m -20.185794,2.28215 c 1.641232,-5.16001 8.918384,-6.25094 11.864204,-2.28215 m 33.41435,6.13289 a 29.253536,29.253536 0 0 1 -29.25355,29.25355 29.253536,29.253536 0 0 1 -29.253528,-29.25355 29.253536,29.253536 0 0 1 29.253528,-29.25352 29.253536,29.253536 0 0 1 29.25355,29.25352 z m -19.99641,11.80983 c -3.70077,6.85593 -15.4128,6.39903 -18.51572,0" />
    <path
       d="m 204.72119,259.67705 c -1.64124,-5.16001 -8.9184,-6.25094 -11.86422,-2.28215 m -20.18581,2.28215 c 1.64124,-5.16001 8.91839,-6.25094 11.86422,-2.28215 m 33.41434,6.13289 a 29.253536,29.253536 0 0 1 -29.25354,29.25353 29.253536,29.253536 0 0 1 -29.25354,-29.25353 29.253536,29.253536 0 0 1 29.25354,-29.25352 29.253536,29.253536 0 0 1 29.25354,29.25352 z m -19.9964,11.80983 c -3.70078,6.85593 -15.4128,6.39903 -18.51573,0"
       style="fill:none;stroke:#000000;stroke-width:6;stroke-linecap:round;stroke-linejoin:miter;stroke-miterlimit:4;stroke-dasharray:none;stroke-opacity:1"
       id="path1023" />
    <path
       id="path1025"
       style="fill:none;stroke:#000000;stroke-width:6;stroke-linecap:round;stroke-linejoin:miter;stroke-miterlimit:4;stroke-dasharray:none;stroke-opacity:1"
       d="m 282.11356,259.67705 c -1.64125,-5.16001 -8.9184,-6.25094 -11.86423,-2.28215 m -20.1858,2.28215 c 1.64123,-5.16001 8.91838,-6.25094 11.86421,-2.28215 m 33.41435,6.13289 a 29.253536,29.253536 0 0 1 -29.25355,29.25353 29.253536,29.253536 0 0 1 -29.25354,-29.25353 29.253536,29.253536 0 0 1 29.25354,-29.25352 29.253536,29.253536 0 0 1 29.25355,29.25352 z m -19.99641,11.80983 c -3.70077,6.85593 -15.4128,6.39903 -18.51572,0" />
  </g>
</svg>
