<?xml version="1.0" encoding="UTF-8" standalone="no"?>
<svg
   xmlns:dc="http://purl.org/dc/elements/1.1/"
   xmlns:cc="http://creativecommons.org/ns#"
   xmlns:rdf="http://www.w3.org/1999/02/22-rdf-syntax-ns#"
   xmlns:svg="http://www.w3.org/2000/svg"
   xmlns="http://www.w3.org/2000/svg"
   id="svg871"
   version="1.1"
   viewBox="0 0 300 300"
   height="125px"
   width="125px">
  <defs
     id="defs865" />
  <metadata
     id="metadata868">
    <rdf:RDF>
      <cc:Work
         rdf:about="">
        <dc:format>image/svg+xml</dc:format>
        <dc:type
           rdf:resource="http://purl.org/dc/dcmitype/StillImage" />
        <dc:title></dc:title>
      </cc:Work>
    </rdf:RDF>
  </metadata>
  <g
     transform="translate(0,3)"
     id="layer1">
    <g
       style="stroke-width:6.47661787;stroke-miterlimit:4;stroke-dasharray:none"
       transform="matrix(0.92640945,0,0,0.92640945,-4.63268,23.287907)"
       id="g1459">
      <g
         style="stroke-width:6.47661787;stroke-miterlimit:4;stroke-dasharray:none"
         id="g1445"
         transform="rotate(-45.719166,-115.8962,-493.03174)">
        <g
           style="stroke-width:6.47661787;stroke-miterlimit:4;stroke-dasharray:none"
           transform="translate(-1.54593,224.97915)"
           id="g1438">
          <g
             style="stroke-width:6.47661787;stroke-miterlimit:4;stroke-dasharray:none"
             id="g1433" />
        </g>
      </g>
      <path
         d="m 184.67087,142.7939 89.63625,131.84403 h -83.00603 l -52.91128,-77.82606 -20.72988,-30.37874 47.85527,2.55609 M 105.22684,146.78822 30.91473,38.729077 h 83.00603 l 40.44522,57.778108 M 226.58618,37.076716 247.4338,15.69907 c 7.56823,15.428319 19.82796,26.04587 34.77249,33.910355 L 261.35868,70.987071 C 246.65087,61.924316 234.24969,51.2034 226.58618,37.076716 Z m -21.77151,1.473624 54.48753,-55.872823 c 8.27306,-8.48339 20.43238,4.313691 12.62879,12.3156781 -6.3102,6.4706351 -8.8852,15.3870899 3.47315,27.4390389 11.19393,10.916392 20.22813,10.056233 27.41669,2.684919 7.18855,-7.371313 20.2588,4.707954 12.73689,12.421101 L 261.07019,93.411077 C 236.13976,80.668891 218.49046,61.392546 204.81467,38.55034 Z m 47.93865,50.257908 -18.03743,-3.584187 5.04659,22.435319 -22.55494,-4.48184 5.04659,22.43533 -22.55494,-4.48185 5.04659,22.43533 -22.55494,-4.48184 5.04659,22.43532 -22.55493,-4.48184 0.8327,11.95123 m -29.29466,25.41581 -6.55474,-1.46008 5.04659,22.43533 -22.55494,-4.48185 5.04659,22.43533 -22.554941,-4.48184 5.046585,22.43533 -22.554936,-4.48185 5.046592,22.43533 -22.554936,-4.48185 5.046585,22.43533 L 16.022381,239.74398 206.00655,45.312457"
         style="fill:none;fill-opacity:1;stroke:#000000;stroke-width:6.47661787;stroke-linecap:round;stroke-linejoin:round;stroke-miterlimit:4;stroke-dasharray:none;stroke-opacity:1;paint-order:fill markers stroke"
         id="rect1447" />
    </g>
  </g>
</svg>
