<?xml version="1.0" encoding="UTF-8" standalone="no"?>
<svg
   xmlns:dc="http://purl.org/dc/elements/1.1/"
   xmlns:cc="http://creativecommons.org/ns#"
   xmlns:rdf="http://www.w3.org/1999/02/22-rdf-syntax-ns#"
   xmlns:svg="http://www.w3.org/2000/svg"
   xmlns="http://www.w3.org/2000/svg"
   id="svg8"
   version="1.1"
   viewBox="0 0 300 300"
   height="125px"
   width="125px">
  <defs
     id="defs2" />
  <metadata
     id="metadata5">
    <rdf:RDF>
      <cc:Work
         rdf:about="">
        <dc:format>image/svg+xml</dc:format>
        <dc:type
           rdf:resource="http://purl.org/dc/dcmitype/StillImage" />
        <dc:title></dc:title>
      </cc:Work>
    </rdf:RDF>
  </metadata>
  <g
     transform="translate(189.34313,314.77616)"
     id="layer1">
    <g
       transform="translate(1.4892102,-24.998151)"
       style="stroke-width:6;stroke-miterlimit:4;stroke-dasharray:none"
       id="g4563">
      <g
         id="g4536"
         transform="rotate(39.781646,0.80404935,-1.8785156)"
         style="stroke-width:6;stroke-miterlimit:4;stroke-dasharray:none" />
      <path
         d="m -185.34572,-94.266593 c 0,0 15.22742,5.57859 24.10278,5.715402 8.87536,0.1368 18.25699,-5.684095 27.90817,-5.715402 9.65118,-0.03129 19.06677,5.718032 28.8595,5.715402 6.62145,-0.0018 10.218389,-1.883635 16.6592,-3.576244 m -97.52965,32.650175 c 0,0 15.22742,5.57859 24.10278,5.715402 8.87536,0.136799 18.25699,-5.684108 27.90817,-5.715402 8.67075,-0.02811 15.92135,4.258264 24.65612,5.198824 m -76.66708,29.590509 c 0,0 15.22742,5.578589 24.10278,5.715402 8.87536,0.136799 18.25699,-5.684108 27.90817,-5.715402 7.88893,-0.02557 12.10618,3.459837 20.01494,4.860352 m -72.02589,-109.228355 c 0,0 15.22742,5.57859 24.10278,5.71541 8.87536,0.13679 18.25699,-5.68411 27.90817,-5.71541 9.65117,-0.0313 19.06676,5.71817 28.8595,5.71541 9.792735,-0.003 18.416484,-6.18193 28.071395,-6.24254 4.007271,-0.0251 6.719815,0.16667 11.811119,1.22196 m -120.752954,-35.48415 c 0,0 15.22742,5.57858 24.10278,5.7154 8.87536,0.1368 18.25699,-5.68409 27.90817,-5.7154 9.65118,-0.0313 19.06677,5.71816 28.8595,5.7154 9.792738,-0.003 19.119339,-5.65478 28.77425,-5.7154 5.637334,-0.0354 16.648263,2.42734 24.83581,4.48302 5.835039,1.46504 13.1827,-0.75559 13.1827,-0.75559 m -58.301785,108.693282 c 6.477101,7.456574 13.722272,13.674843 23.09087,19.064388 l -29.139245,11.307046 z m 57.221742,-8.190256 -26.955959,27.991328 c -5.406242,5.613892 -37.501918,-20.78705 -32.36925,-26.951484 l 22.897728,-30.913024 M 53.537168,-253.06381 c 20.063713,-24.09692 65.394762,13.29752 45.130569,37.63522 L -31.273935,-59.608357 c -6.17409,7.415204 -51.754895,-29.679311 -45.130542,-37.635279 z"
         style="fill:none;stroke:#000000;stroke-width:6;stroke-linecap:round;stroke-linejoin:miter;stroke-miterlimit:4;stroke-dasharray:none;stroke-opacity:1"
         id="path4552" />
    </g>
  </g>
</svg>
