<?xml version="1.0" encoding="UTF-8" standalone="no"?>
<svg
   xmlns:dc="http://purl.org/dc/elements/1.1/"
   xmlns:cc="http://creativecommons.org/ns#"
   xmlns:rdf="http://www.w3.org/1999/02/22-rdf-syntax-ns#"
   xmlns:svg="http://www.w3.org/2000/svg"
   xmlns="http://www.w3.org/2000/svg"
   id="svg1491"
   version="1.1"
   viewBox="0 0 300 300"
   height="125px"
   width="125px">
  <defs
     id="defs1485" />
  <metadata
     id="metadata1488">
    <rdf:RDF>
      <cc:Work
         rdf:about="">
        <dc:format>image/svg+xml</dc:format>
        <dc:type
           rdf:resource="http://purl.org/dc/dcmitype/StillImage" />
        <dc:title></dc:title>
      </cc:Work>
    </rdf:RDF>
  </metadata>
  <g
     transform="translate(0,3)"
     id="layer1">
    <g
       style="stroke-width:6.26705978;stroke-miterlimit:4;stroke-dasharray:none"
       transform="matrix(0.95738675,0,0,0.95738675,355.90367,-45.79091)"
       id="g2067">
      <path
         id="path2045"
         style="fill:none;stroke:#000000;stroke-width:6.26705978;stroke-linecap:round;stroke-linejoin:round;stroke-miterlimit:4;stroke-dasharray:none;stroke-opacity:1"
         d="m -98.106765,112.55613 c 0,0 -0.421615,19.42268 -7.726565,21.15816 -11.10011,2.63712 -14.04948,-20.0547 -24.94643,-23.43453 -3.16556,-0.98184 -8.2512,-1.40364 -9.82738,1.51191 -3.87906,7.17531 13.12261,14.68478 10.13264,22.27373 -2.75151,6.9837 -16.22813,14.58196 -20.79982,8.6286 -2.29753,-2.99191 6.68262,-5.21298 6.88742,-8.97971 0.44813,-8.24199 -4.74685,-19.60115 -12.85119,-21.16667 -2.47411,-0.47792 -4.79075,2.35171 -6.04762,4.53572 -4.30283,7.47682 2.12445,18.78047 -3.02381,25.70237 -4.91684,6.61074 -15.16787,13.21363 -22.67857,9.82739 -10.38815,-4.68356 -15.10566,-22.04661 -10.58333,-32.50596 3.75779,-8.6911 21.87669,-3.4338 25.70237,-12.09523 3.54694,-8.03034 -14.64235,-18.49608 -7.76045,-25.167033 6.63472,-6.431356 25.96457,-15.483592 25.96457,-15.483592 m 79.096261,88.054205 c 0,0 -27.618401,-2.48522 -41.359901,-1.29049 -13.58851,1.18143 -28.02011,1.91607 -40.06548,8.31548 -11.80242,6.27033 -23.76268,15.56145 -28.72619,27.97023 -4.96351,12.40878 -5.84247,28.9063 1.51191,40.06548 9.05567,13.74064 33.00255,9.49267 44.60119,21.16666 5.87967,5.91787 8.82364,14.52412 10.58333,22.67858 3.38002,15.66314 -0.5555,48.06783 -0.5555,48.06783 M -298.86845,81.736997 c 0,0 8.23697,12.386771 8.58273,19.471343 0.9439,19.34045 0.56895,50.20332 -18.14285,55.18452 -6.55201,1.74419 -8.35913,-14.13138 -15.11903,-13.60715 -13.92911,1.08019 -21.49739,19.44549 -26.45834,32.50596 -3.13458,8.25226 -6.12038,19.17406 -1.13392,26.45833 3.9836,5.81928 13.66843,3.76563 20.03271,6.80357 10.22057,4.87872 22.64301,8.59002 28.72621,18.14286 7.50426,11.78442 10.59184,28.65086 5.29167,41.57737 -3.40407,8.30213 -19.04018,7.91368 -21.16667,16.63096 -3.12875,12.82594 16.37711,36.06153 16.37711,36.06153 M -67.279755,201.37202 A 147.78868,147.78868 0 0 1 -215.06844,349.16071 147.78868,147.78868 0 0 1 -362.85712,201.37202 147.78868,147.78868 0 0 1 -215.06844,53.583344 147.78868,147.78868 0 0 1 -67.279755,201.37202 Z" />
      <path
         style="fill:#000000;fill-opacity:1;stroke:#000000;stroke-width:23.68652547;stroke-linecap:round;stroke-linejoin:round;stroke-miterlimit:4;stroke-dasharray:none;stroke-opacity:1;paint-order:fill markers stroke"
         d="m -1211.4251,1146.1584 c -71.1458,-74.8981 -121.9503,-176.62404 -139.6145,-279.55078 -6.3468,-36.98163 -7.2515,-48.7449 -7.2515,-94.28572 0,-44.25865 0.8952,-56.60304 6.5783,-90.71428 21.7941,-130.81202 93.2454,-252.49284 196.9007,-335.31956 l 17.7646,-14.19503 2.5383,3.32872 c 4.9,6.426 18.1907,33.43865 21.6699,44.04301 4.5265,13.79635 6.0054,45.31972 3.8684,82.45968 -4.1817,72.67618 -22.0521,114.69958 -53.9573,126.88431 -6.1891,2.36364 -6.3249,2.35027 -9.8924,-0.97373 -1.9894,-1.85364 -7.2148,-9.46896 -11.612,-16.92292 -17.0883,-28.96745 -29.1242,-35.71742 -52.5601,-29.4767 -36.6538,9.76049 -64.3128,44.7026 -92.7197,117.1346 -20.8526,53.17023 -24.5266,87.57183 -12.0929,113.23236 9.2561,19.10254 20.6543,25.96632 51.7456,31.16 27.4004,4.57714 25.064,3.82884 58.5903,18.76516 57.5898,25.65681 71.9801,37.27701 88.3074,71.30867 18.9954,39.5929 23.3326,83.18477 11.8828,119.42991 -4.6649,14.767 -9.1776,18.6181 -38.3059,32.6903 -26.9298,13.0101 -36.9804,20.9014 -42.2949,33.2082 -6.8156,15.7828 -4.787,38.1702 5.7893,63.8901 3.0542,7.4273 5.3491,13.7082 5.0998,13.9575 -0.2494,0.2493 -4.9447,-4.2749 -10.4342,-10.0538 z"
         id="path2057"
         transform="matrix(0.26458333,0,0,0.26458333,0,-3)" />
      <path
         style="fill:#000000;fill-opacity:1;stroke:#000000;stroke-width:23.68652547;stroke-linecap:round;stroke-linejoin:round;stroke-miterlimit:4;stroke-dasharray:none;stroke-opacity:1;paint-order:fill markers stroke"
         d="m -711.55034,575.78135 c -13.98326,-6.96816 -26.91663,-25.76113 -33.39421,-48.52383 -4.54588,-15.97456 -4.50575,-40.58014 0.0855,-52.40264 4.9268,-12.68665 10.3336,-15.29348 43.71086,-21.07466 26.32277,-4.55932 37.48965,-8.7489 46.18603,-17.32809 10.2564,-10.11818 13.54373,-22.62699 9.56944,-36.41327 -2.76247,-9.58264 -6.64509,-16.30793 -21.61509,-37.44061 -5.80579,-8.19586 -11.30793,-17.41132 -12.22697,-20.47881 -1.57912,-5.27064 -1.44285,-5.81538 2.47871,-9.9086 8.91442,-9.30466 44.84633,-31.24447 80.27758,-49.01702 l 13.24112,-6.64184 11.75888,5.66626 c 65.66641,31.64275 126.93764,79.85216 178.37992,140.35282 l 10.11293,11.8937 -0.81667,13.0309 c -1.48138,23.63707 -7.63096,46.57729 -14.46177,53.94786 -2.40726,2.59747 -4.9215,3.73553 -8.25264,3.73553 -8.95155,0 -17.87743,-9.28497 -32.69402,-34.00929 -16.75295,-27.95548 -28.75644,-42.59923 -40.61543,-49.54906 -14.81235,-8.68062 -39.64927,-10.37477 -51.8196,-3.53465 -10.67795,6.00134 -15.60984,17.80514 -12.95472,31.00544 1.83438,9.11991 8.65317,19.50643 24.15658,36.79579 6.33799,7.0681 12.82597,15.54141 14.41776,18.8296 l 2.89416,5.97851 -2.85406,5.5944 c -6.68292,13.0996 -29.86404,28.61499 -44.83932,30.01144 l -7.46568,0.69619 8.85073,-6.68606 c 13.05091,-9.85896 15.46684,-14.5056 15.29531,-29.41803 -0.4983,-43.319 -31.1596,-85.64594 -62.08064,-85.70033 -12.63476,-0.0223 -24.464,9.10142 -32.39564,24.98605 -5.64686,11.30893 -6.45735,18.91111 -5.37098,50.37863 1.3109,37.97137 1.12938,38.69127 -13.37122,53.0295 -23.09557,22.83694 -46.59273,30.96165 -64.1868,22.19417 z"
         id="path2059"
         transform="matrix(0.26458333,0,0,0.26458333,0,-3)" />
      <path
         style="fill:#000000;fill-opacity:1;stroke:#000000;stroke-width:23.68652547;stroke-linecap:round;stroke-linejoin:round;stroke-miterlimit:4;stroke-dasharray:none;stroke-opacity:1;paint-order:fill markers stroke"
         d="m -478.53222,1199.3632 c 4.38326,-31.7224 4.67185,-121.6905 0.46479,-144.8984 -10.45743,-57.6875 -32.328,-96.6496 -64.98201,-115.76451 -14.4595,-8.46426 -29.14204,-13.57867 -67.88615,-23.64703 -57.14246,-14.8495 -72.50633,-23.96478 -85.19113,-50.5434 -15.17396,-31.79417 -15.69619,-78.91353 -1.33942,-120.85166 13.08413,-38.22056 43.44614,-70.81688 94.00372,-100.92138 35.02856,-20.85774 67.72679,-29.0586 141.59989,-35.51386 22.57419,-1.9726 36.66206,-2.26367 74.28571,-1.53479 43.26439,0.83815 94.80146,3.81614 96.56518,5.57986 2.08355,2.08356 11.59511,40.73723 16.33875,66.39853 7.56176,40.90615 10.19099,106.55193 5.90813,147.51249 -15.36693,146.9673 -86.20977,278.83425 -199.55504,371.45205 l -11.08667,9.0592 z"
         id="path2061"
         transform="matrix(0.26458333,0,0,0.26458333,0,-3)" />
    </g>
  </g>
</svg>
