<?xml version="1.0" encoding="UTF-8" standalone="no"?>
<svg
   xmlns:dc="http://purl.org/dc/elements/1.1/"
   xmlns:cc="http://creativecommons.org/ns#"
   xmlns:rdf="http://www.w3.org/1999/02/22-rdf-syntax-ns#"
   xmlns:svg="http://www.w3.org/2000/svg"
   xmlns="http://www.w3.org/2000/svg"
   id="svg8"
   version="1.1"
   viewBox="0 0 300 300"
   height="125px"
   width="125px">
  <defs
     id="defs2" />
  <metadata
     id="metadata5">
    <rdf:RDF>
      <cc:Work
         rdf:about="">
        <dc:format>image/svg+xml</dc:format>
        <dc:type
           rdf:resource="http://purl.org/dc/dcmitype/StillImage" />
        <dc:title></dc:title>
      </cc:Work>
    </rdf:RDF>
  </metadata>
  <flowRoot
     xml:space="preserve"
     id="flowRoot1144"
     style="font-style:normal;font-weight:normal;font-size:40px;line-height:1.25;font-family:sans-serif;letter-spacing:0px;word-spacing:0px;fill:#000000;fill-opacity:1;stroke:none"
     transform="scale(2.4)"><flowRegion
       id="flowRegion1146"><rect
         id="rect1148"
         width="94.006248"
         height="61.79694"
         x="19.849926"
         y="7.7730813" /></flowRegion><flowPara
       id="flowPara1150">gfsgauadsahfhjdhf</flowPara></flowRoot>  <flowRoot
     xml:space="preserve"
     id="flowRoot1164"
     style="fill:black;fill-opacity:1;stroke:none;font-family:sans-serif;font-style:normal;font-weight:normal;font-size:40px;line-height:1.25;letter-spacing:0px;word-spacing:0px"><flowRegion
       id="flowRegion1166"><rect
         id="rect1168"
         width="266.28864"
         height="66.665787"
         x="-58.05167"
         y="-38.668255" /></flowRegion><flowPara
       id="flowPara1170" /></flowRoot>  <flowRoot
     xml:space="preserve"
     id="flowRoot1172"
     style="fill:black;fill-opacity:1;stroke:none;font-family:Purisa;font-style:normal;font-weight:normal;font-size:40px;line-height:1.25;letter-spacing:0px;word-spacing:0px;-inkscape-font-specification:'Purisa, Normal';font-stretch:normal;font-variant:normal;text-anchor:start;text-align:start;writing-mode:lr;font-variant-ligatures:normal;font-variant-caps:normal;font-variant-numeric:normal;font-feature-settings:normal;"><flowRegion
       id="flowRegion1174"
       style="-inkscape-font-specification:'Purisa, Normal';font-family:Purisa;font-weight:normal;font-style:normal;font-stretch:normal;font-variant:normal;font-size:40px;text-anchor:start;text-align:start;writing-mode:lr;font-variant-ligatures:normal;font-variant-caps:normal;font-variant-numeric:normal;font-feature-settings:normal;"><rect
         id="rect1176"
         width="475.63559"
         height="138.77118"
         x="-76.271187"
         y="-141.94916"
         style="-inkscape-font-specification:'Purisa, Normal';font-family:Purisa;font-weight:normal;font-style:normal;font-stretch:normal;font-variant:normal;font-size:40px;text-anchor:start;text-align:start;writing-mode:lr;font-variant-ligatures:normal;font-variant-caps:normal;font-variant-numeric:normal;font-feature-settings:normal;" /></flowRegion><flowPara
       id="flowPara1180" /></flowRoot>  <flowRoot
     xml:space="preserve"
     id="flowRoot1209"
     style="fill:black;fill-opacity:1;stroke:none;font-family:sans-serif;font-style:normal;font-weight:normal;font-size:40px;line-height:1.25;letter-spacing:0px;word-spacing:0px"><flowRegion
       id="flowRegion1211"><rect
         id="rect1213"
         width="525.46124"
         height="63.295044"
         x="-58.800724"
         y="-131.92545" /></flowRegion><flowPara
       id="flowPara1215" /></flowRoot>  <path
     d="m 102.1548,224.16359 c 0.669,6.83726 0.11244,-0.32804 0.37392,4.56918 0.14426,2.74957 0.35814,4.25986 0.0384,8.08413 -0.16553,1.97966 -0.97276,6.37787 -3.284244,6.37881 -1.226613,5e-4 -1.737343,-2.43974 -1.745356,-3.38355 -0.02613,-3.07405 2.017183,-0.2867 0.918837,5.8042 -1.244465,6.90127 -3.0294,7.66101 -5.045398,10.5191 -3.061009,4.35491 -6.376363,6.38619 -9.946037,6.09385 -3.543497,-0.26616 -6.32804,-2.82584 -8.353629,-7.67902 -2.861342,-6.78849 -4.138137,-14.43162 -2.964543,-28.00738 0.06213,-0.6976 0.790324,-3.81912 1.318786,-4.28652 0.528476,-0.46739 1.126671,-0.66867 1.794589,-0.6038 0.693548,0.0643 1.264073,0.37243 1.711588,0.92438 0.447515,0.55196 0.640496,1.19012 0.578943,1.91449 -1.089801,12.6902 -0.379085,22.03197 2.132133,28.02529 2.510638,5.96655 5.744652,6.14615 9.702042,0.53882 4.330407,-6.15146 6.922087,-15.71685 7.77503,-28.69613 0.03649,-0.69702 0.318999,-1.27923 0.84747,-1.74664 0.55351,-0.49477 1.138321,-0.72249 1.754433,-0.68318 0.616106,0.0392 1.146496,0.26801 1.591176,0.68616 0.4447,0.41813 0.712,0.93409 0.80192,1.54786 z m -48.038165,8.65405 c 0.127491,0.81527 0.21975,1.81078 -0.07646,3.0602 -0.410112,10.18226 -0.572921,17.87522 3.937307,19.84051 6.766711,2.94853 10.06913,-5.42152 11.775396,-14.1749 0.596643,-3.06084 1.915584,-9.11867 2.073651,-10.8917 0.310918,-3.4876 1.009883,-4.29381 1.345555,-6.61514 0.140984,-0.97498 1.233844,13.70715 -1.740587,24.13601 -0.787762,2.30437 -2.047426,5.66014 -4.009744,8.45443 -1.773259,2.52509 -5.457053,4.25639 -6.644683,4.52138 -3.901078,0.67738 -7.909079,-0.72361 -9.556933,-4.13781 -1.385283,-2.87017 -1.804678,-3.93647 -2.093308,-8.63854 -2.249346,4.25203 -4.697459,7.617 -7.344338,10.09489 -1.617742,1.5098 -3.317713,2.40758 -5.099912,2.69332 -1.814505,0.66284 -3.64115,0.83042 -5.47997,0.50275 -1.813212,-0.3291 -3.445287,-1.13727 -4.896214,-2.42453 -1.4737,-1.30525 -3.645168,-4.99818 -4.558288,-6.9927 -0.0971,-0.21198 -1.107691,4.25322 -2.963192,6.16769 -1.689123,1.74284 -1.754849,2.01177 -2.92913,2.70806 -0.840353,0.49828 -2.874502,0.59889 -3.185645,0.2844 -0.569162,-0.5753 -1.424121,-1.326 -0.601148,-2.20495 0.839784,-0.89689 2.203253,-1.69317 4.428841,-4.40797 0.668072,-0.81491 1.796603,-3.25724 2.210129,-4.34808 1.675502,-4.41983 1.940326,-8.16465 2.050165,-9.24413 0.272258,-2.67558 0.954461,-5.2975 2.046609,-7.86574 2.386655,-5.59991 6.247163,-9.45812 11.581526,-11.57462 4.678337,-1.89276 8.938548,-1.89945 12.78061,-0.0201 3.867669,1.87799 6.184283,5.5704 6.949828,11.07723 z m -4.972729,0.6357 c -0.514865,-3.59055 -1.96924,-5.96328 -4.363115,-7.11824 -2.368291,-1.15633 -5.2376,-1.05197 -8.60795,0.31305 -4.026353,1.5888 -6.90019,4.40085 -8.621489,8.43616 -1.72265,4.0086 -2.292856,7.96715 -1.710628,11.87566 0.580887,3.88177 1.731517,6.59291 3.451879,8.13341 1.744594,1.51234 3.738328,1.85831 5.981189,1.03787 0.202063,-0.0647 0.507171,-0.12171 0.915339,-0.17102 0.433762,-0.0506 1.276332,-0.64661 2.527708,-1.78777 3.312295,-3.02383 6.284319,-7.95901 8.916047,-14.80554 0.680152,-1.77986 1.160292,-3.20023 1.440398,-4.2611 0.02419,-0.53746 0.04778,-1.08829 0.07066,-1.65248 z"
     style="font-style:normal;font-variant:normal;font-weight:normal;font-stretch:normal;font-size:66.41434479px;line-height:1.25;font-family:Chilanka;-inkscape-font-specification:'Chilanka, Normal';font-variant-ligatures:normal;font-variant-caps:normal;font-variant-numeric:normal;font-feature-settings:normal;text-align:start;letter-spacing:0px;word-spacing:0px;writing-mode:lr-tb;text-anchor:start;fill:#000000;fill-opacity:1;stroke:#000000;stroke-width:1.45390797;stroke-linecap:round;stroke-miterlimit:4;stroke-dasharray:none;stroke-opacity:1"
     id="path882" />
  <g
     id="layer1"
     transform="matrix(0.9168473,0,0,0.9168473,-167.72787,192.20088)">
    <g
       id="g4563"
       style="stroke-width:6;stroke-miterlimit:4;stroke-dasharray:none"
       transform="translate(1.4892102,-24.998151)">
      <g
         style="stroke-width:6;stroke-miterlimit:4;stroke-dasharray:none"
         transform="rotate(39.781646,0.80404935,-1.8785156)"
         id="g4536" />
      <path
         id="path4552"
         style="fill:none;stroke:#000000;stroke-width:6;stroke-linecap:round;stroke-linejoin:miter;stroke-miterlimit:4;stroke-dasharray:none;stroke-opacity:1"
         d="m 301.07283,63.918593 c 6.4771,7.456574 13.72228,13.674843 23.09087,19.064388 l -29.13924,11.307046 z m 57.22175,-8.190256 -26.95596,27.991328 C 325.93237,89.333557 293.8367,62.932615 298.96937,56.768181 L 321.86709,25.855157 M 450.5943,-137.72068 c 20.06371,-24.09692 65.39476,13.29752 45.13057,37.63522 L 365.78319,55.734774 C 359.6091,63.149978 314.0283,26.055463 320.65265,18.099495 Z" />
    </g>
  </g>
  <path
     d="m 101.04625,47.663869 0.58885,6.010964 c 1.99654,25.257113 0.0133,42.359249 -5.949932,51.306397 -2.558746,3.86134 -5.953519,5.77396 -10.184317,5.73789 -2.282245,-0.0276 -3.616728,-0.57909 -6.258746,-1.8568 -1.466481,-0.91057 -2.418486,-2.62834 -2.663869,-3.31883 -0.120639,-0.3794 -1.775903,-2.93282 -0.608747,-6.419826 0.958835,-2.864659 5.658571,-6.656338 5.913176,-6.832078 5.507427,-3.801472 10.536361,-6.978584 16.395412,-9.47288 2.514713,-1.070552 5.057143,-1.744058 6.848663,-2.360357 2.01047,-0.69162 5.26388,-1.886007 7.30736,-1.876188 0.18685,8.92e-4 0.22619,2.338267 -0.59886,3.388984 -0.65186,0.830165 -3.39321,1.78685 -4.90233,2.412053 -3.12298,1.293804 -2.73831,1.362908 -7.186466,2.635019 -4.299212,1.229515 -8.367853,3.876706 -11.497979,5.427069 -2.952142,1.462203 -6.773801,4.836873 -7.344244,5.461492 -0.534841,0.585642 -2.315902,4.530992 -0.659985,6.106062 2.838947,2.70041 6.321852,1.92898 8.550664,0.64577 3.393931,-1.95278 5.807023,-7.243256 7.239277,-15.87146 0.930919,-5.671233 1.368778,-12.228079 1.313602,-19.670513 -1.347603,4.154637 -3.0294,7.661004 -5.045398,10.519101 -3.061009,4.354907 -6.376363,6.386195 -9.946036,6.093851 -3.543498,-0.266168 -6.328041,-2.825841 -8.35363,-7.67902 -2.861342,-6.788493 -4.138137,-14.431616 -2.964543,-28.007386 0.06213,-0.697601 0.790324,-3.819116 1.318787,-4.28652 0.528474,-0.467391 1.12667,-0.668664 1.794588,-0.603793 0.693548,0.06426 1.264074,0.372432 1.711589,0.924381 0.447514,0.551961 0.640496,1.190115 0.578942,1.914486 -1.0898,12.690208 -0.379085,22.031971 2.132133,28.02529 2.510638,5.96655 5.744652,6.146154 9.702043,0.538824 4.330406,-6.151465 6.922087,-15.71685 7.77503,-28.696133 0.03652,-0.697019 0.319003,-1.27923 0.847466,-1.746633 0.553513,-0.49478 1.138324,-0.722501 1.754436,-0.683188 0.616103,0.03925 1.146499,0.268012 1.591184,0.68616 0.44469,0.418134 0.71199,0.934088 0.80192,1.547862 z m -48.038164,8.654045 c 0.127494,0.81528 0.219746,1.810785 -0.07653,3.06021 -0.410117,10.182254 -0.57292,17.875204 3.937308,19.840494 6.766708,2.948537 10.069127,-5.421508 11.775394,-14.174882 0.596642,-3.060854 1.915583,-9.118685 2.07365,-10.891705 0.310918,-3.487596 1.009884,-4.293814 1.345556,-6.615142 0.140983,-0.974987 1.233843,13.707147 -1.740587,24.136004 -0.787759,2.304365 -2.047423,5.660139 -4.00974,8.45443 -1.773261,2.525091 -5.457054,4.256395 -6.644684,4.521387 -3.901072,0.67738 -7.909076,-0.723616 -9.556929,-4.137811 -1.385283,-2.870169 -1.804689,-3.936475 -2.093307,-8.638541 -2.249346,4.252036 -4.697458,7.616997 -7.344338,10.094887 -1.617742,1.509799 -3.317713,2.407582 -5.099912,2.693327 -1.814505,0.662831 -3.641162,0.830411 -5.479969,0.502741 -1.813214,-0.329094 -3.445289,-1.137267 -4.896214,-2.424534 -1.4737,-1.305245 -3.645169,-4.998174 -4.55829,-6.992687 -0.09709,-0.211983 -1.107702,4.253212 -2.963191,6.167686 -1.689135,1.742832 -1.754849,2.011774 -2.929131,2.708062 -0.840365,0.498284 -2.874501,0.59889 -3.185656,0.284395 -0.569151,-0.575303 -1.424109,-1.325998 -0.601136,-2.204948 0.839784,-0.896893 2.203253,-1.693168 4.428841,-4.407966 0.668071,-0.814909 1.796604,-3.257249 2.210129,-4.348084 1.675501,-4.419826 1.940325,-8.16465 2.050165,-9.24413 0.272246,-2.675581 0.954448,-5.2975 2.046609,-7.865741 2.386654,-5.599914 6.247163,-9.458121 11.581514,-11.574623 4.678348,-1.892755 8.938548,-1.899441 12.780621,-0.02006 3.86767,1.877996 6.184274,5.570405 6.949826,11.077229 z m -4.972737,0.635701 c -0.514865,-3.590542 -1.969229,-5.963281 -4.363115,-7.118231 -2.368279,-1.156336 -5.237599,-1.051978 -8.607938,0.313048 -4.026365,1.588797 -6.90019,4.400844 -8.621501,8.436155 -1.722649,4.0086 -2.292855,7.967151 -1.710617,11.875655 0.580887,3.881783 1.731506,6.592915 3.451868,8.13341 1.744606,1.512349 3.73834,1.858308 5.981201,1.037876 0.202062,-0.06476 0.507171,-0.121717 0.915338,-0.171023 0.433751,-0.05065 1.27632,-0.646611 2.527698,-1.787767 3.312306,-3.023832 6.284318,-7.959006 8.916057,-14.805534 0.680153,-1.779865 1.160293,-3.20024 1.440399,-4.261109 0.02419,-0.537462 0.04778,-1.088284 0.07066,-1.65248 z"
     style="font-style:normal;font-variant:normal;font-weight:normal;font-stretch:normal;font-size:66.41434479px;line-height:1.25;font-family:Chilanka;-inkscape-font-specification:'Chilanka, Normal';font-variant-ligatures:normal;font-variant-caps:normal;font-variant-numeric:normal;font-feature-settings:normal;text-align:start;letter-spacing:0px;word-spacing:0px;writing-mode:lr-tb;text-anchor:start;fill:#000000;fill-opacity:1;stroke:#000000;stroke-width:1.45390797;stroke-linecap:round;stroke-miterlimit:4;stroke-dasharray:none;stroke-opacity:1"
     id="path1200" />
  <path
     id="path1202"
     style="font-style:normal;font-variant:normal;font-weight:normal;font-stretch:normal;font-size:66.41434479px;line-height:1.25;font-family:Chilanka;-inkscape-font-specification:'Chilanka, Normal';font-variant-ligatures:normal;font-variant-caps:normal;font-variant-numeric:normal;font-feature-settings:normal;text-align:start;letter-spacing:0px;word-spacing:0px;writing-mode:lr-tb;text-anchor:start;fill:#000000;fill-opacity:1;stroke:#000000;stroke-width:1.45390797;stroke-linecap:round;stroke-miterlimit:4;stroke-dasharray:none;stroke-opacity:1"
     d="m 208.26504,81.079588 c -1.53536,1.47033 -3.20542,-0.870432 -4.15364,-3.029019 -0.94822,-2.158587 -4.13813,-14.431616 -2.96454,-28.007387 0.0622,-0.6976 0.79032,-3.819116 1.31878,-4.286519 0.52848,-0.467391 1.12668,-0.668664 1.79459,-0.603794 0.69355,0.06426 1.26408,0.372433 1.71159,0.924381 0.44752,0.551961 0.6405,1.190116 0.57895,1.914486 -1.08981,12.690209 -0.13082,20.564656 0.93213,26.975291 0.62706,3.781816 2.81139,4.169266 0.78214,6.112561 z M 183.11677,56.317913 c 0.1275,0.815281 0.21975,1.810785 -0.0765,3.060211 -0.41012,10.182254 -0.57292,17.875204 3.93731,19.840494 6.7667,2.948536 10.06912,-5.421508 11.77539,-14.174882 0.59664,-3.060855 1.91558,-9.118686 2.07365,-10.891706 0.31092,-3.487596 1.00989,-4.293813 1.34555,-6.615141 0.14099,-0.974987 1.23385,13.707146 -1.74058,24.136005 -0.78777,2.304364 -2.04743,5.660138 -4.00974,8.45443 -1.77327,2.525089 -5.45706,4.256393 -6.64469,4.521385 -3.90108,0.67738 -7.90908,-0.723616 -9.55693,-4.13781 -1.38528,-2.870169 -1.80468,-3.936475 -2.09331,-8.638541 -2.24935,4.252036 -4.69746,7.616997 -7.34434,10.094886 -1.61774,1.509799 -3.31771,2.407582 -5.09991,2.693327 -1.81451,0.662831 -3.64115,0.830412 -5.47997,0.502742 -1.81321,-0.329094 -3.44529,-1.137268 -4.89621,-2.424534 -1.4737,-1.305245 -3.64518,-4.998174 -4.55829,-6.992687 -0.0971,-0.211983 -1.10769,4.253212 -2.9632,6.167686 -1.68911,1.742831 -1.75484,2.011773 -2.92912,2.708062 -0.84036,0.498284 -2.8745,0.598889 -3.18565,0.284394 -0.56916,-0.575302 -1.42412,-1.325998 -0.60115,-2.204948 0.83979,-0.896892 2.20326,-1.693167 4.42885,-4.407965 0.66807,-0.814909 1.7966,-3.257249 2.21012,-4.348084 1.6755,-4.419826 1.94033,-8.16465 2.05016,-9.244129 0.27226,-2.675582 0.95447,-5.297502 2.04662,-7.865743 2.38665,-5.599913 6.24716,-9.45812 11.58152,-11.574622 4.67834,-1.892756 8.93855,-1.899442 12.78062,-0.02006 3.86766,1.877997 6.18428,5.570406 6.94982,11.077229 z m -4.97273,0.635702 c -0.51487,-3.590542 -1.96923,-5.963281 -4.36311,-7.118231 -2.36829,-1.156336 -5.2376,-1.051979 -8.60795,0.313048 -4.02635,1.588796 -6.90019,4.400844 -8.62149,8.436154 -1.72265,4.0086 -2.29285,7.967152 -1.71063,11.875656 0.58089,3.881783 1.73152,6.592916 3.45188,8.13341 1.74459,1.51235 3.73833,1.858308 5.98119,1.037876 0.20206,-0.06476 0.50717,-0.121717 0.91534,-0.171023 0.43376,-0.05065 1.27633,-0.646611 2.5277,-1.787767 3.3123,-3.023832 6.28432,-7.959006 8.91605,-14.805534 0.68015,-1.779865 1.1603,-3.200241 1.4404,-4.26111 0.0242,-0.537462 0.0478,-1.088284 0.0707,-1.652479 z" />
  <path
     id="path1206"
     style="font-style:normal;font-variant:normal;font-weight:normal;font-stretch:normal;font-size:66.41434479px;line-height:1.25;font-family:Chilanka;-inkscape-font-specification:'Chilanka, Normal';font-variant-ligatures:normal;font-variant-caps:normal;font-variant-numeric:normal;font-feature-settings:normal;text-align:start;letter-spacing:0px;word-spacing:0px;writing-mode:lr-tb;text-anchor:start;fill:#000000;fill-opacity:1;stroke:#000000;stroke-width:1.45390797;stroke-linecap:round;stroke-miterlimit:4;stroke-dasharray:none;stroke-opacity:1"
     d="m 98.531356,136.26258 0.588854,6.01096 c 1.99654,25.25712 0.01329,42.35926 -5.949936,51.30641 -2.558746,3.86133 -5.953519,5.77396 -10.184317,5.73789 -2.282245,-0.0276 -3.616727,-0.57909 -6.258746,-1.85681 -1.46648,-0.91055 -2.418486,-2.62833 -2.663868,-3.31882 -0.12064,-0.37941 -1.775904,-2.93283 -0.608748,-6.41983 0.958836,-2.86466 5.658571,-6.65634 5.913176,-6.83208 5.507427,-3.80147 10.536361,-6.97858 16.395416,-9.47287 2.514706,-1.07055 5.057143,-1.74406 6.848663,-2.36036 2.01047,-0.69162 5.26388,-1.886 7.30735,-1.87618 0.18686,8.9e-4 0.2262,2.33826 -0.59885,3.38898 -0.65186,0.83016 -3.39321,1.78685 -4.90233,2.41205 -3.12298,1.29381 -2.73831,1.36291 -7.18647,2.63502 -4.299212,1.22952 -8.367853,3.8767 -11.497979,5.42706 -2.952142,1.46221 -6.773801,4.83688 -7.344244,5.4615 -0.534841,0.58564 -2.315902,4.53099 -0.659985,6.10605 2.838947,2.70042 6.321852,1.92899 8.550664,0.64578 3.393931,-1.95278 5.807023,-7.24325 7.239277,-15.87146 0.930916,-5.67123 1.36878,-12.22808 1.313606,-19.67052 -1.347607,4.15463 -3.029404,7.66101 -5.045402,10.51911 -3.061009,4.35491 -6.376363,6.38619 -9.946036,6.09385 -3.543498,-0.26616 -6.328041,-2.82585 -8.35363,-7.67902 -2.861342,-6.7885 -4.138137,-14.43163 -2.964543,-28.0074 0.06213,-0.6976 0.790324,-3.81912 1.318787,-4.28652 0.528474,-0.46739 1.12667,-0.66867 1.794588,-0.60379 0.693548,0.0643 1.264074,0.37243 1.711589,0.92437 0.447514,0.55196 0.640496,1.19012 0.578942,1.91449 -1.0898,12.69021 -0.379085,22.03198 2.132133,28.0253 2.510638,5.96656 5.744652,6.14616 9.702043,0.53883 4.330406,-6.15148 6.922087,-15.71686 7.77503,-28.69615 0.03652,-0.69701 0.319003,-1.27923 0.847467,-1.74663 0.553512,-0.49478 1.138324,-0.7225 1.754434,-0.68319 0.616108,0.0392 1.146501,0.26802 1.591181,0.68616 0.444698,0.41814 0.711996,0.93409 0.80192,1.54786 z m -48.038163,8.65404 c 0.127493,0.81528 0.219745,1.81079 -0.07653,3.06021 -0.410117,10.18225 -0.57292,17.87521 3.937309,19.84051 6.766708,2.94854 10.069127,-5.42153 11.775393,-14.1749 0.596642,-3.06085 1.915583,-9.11868 2.07365,-10.8917 0.310918,-3.4876 1.009885,-4.29382 1.345556,-6.61515 0.140984,-0.97498 1.233843,13.70715 -1.740587,24.13601 -0.787762,2.30437 -2.047426,5.66015 -4.009744,8.45445 -1.77326,2.52509 -5.457054,4.25639 -6.644683,4.52138 -3.901073,0.67738 -7.909076,-0.72362 -9.55693,-4.13781 -1.385283,-2.87017 -1.804688,-3.93647 -2.093306,-8.63855 -2.249346,4.25204 -4.697459,7.61701 -7.344338,10.0949 -1.617743,1.5098 -3.317713,2.40758 -5.099912,2.69332 -1.814505,0.66283 -3.641162,0.83042 -5.47997,0.50274 -1.813213,-0.32909 -3.445288,-1.13726 -4.896214,-2.42453 -1.4737,-1.30525 -3.645168,-4.99818 -4.55829,-6.9927 -0.0971,-0.21198 -1.107702,4.25323 -2.96319,6.1677 -1.689136,1.74283 -1.75485,2.01177 -2.929131,2.70806 -0.840365,0.49828 -2.874502,0.59889 -3.185657,0.2844 -0.5691504,-0.5753 -1.4241087,-1.326 -0.6011356,-2.20495 0.8397836,-0.89689 2.2032526,-1.69317 4.4288416,-4.40797 0.668071,-0.81491 1.796603,-3.25726 2.210129,-4.3481 1.675501,-4.41982 1.940325,-8.16464 2.050165,-9.24412 0.272246,-2.67559 0.954448,-5.29751 2.046608,-7.86575 2.386655,-5.59992 6.247164,-9.45812 11.581514,-11.57462 4.678349,-1.89275 8.938548,-1.89945 12.780622,-0.0201 3.86767,1.87799 6.184273,5.5704 6.949826,11.07723 z m -4.972738,0.6357 c -0.514865,-3.59054 -1.969228,-5.96328 -4.363115,-7.11823 -2.368279,-1.15633 -5.237599,-1.05198 -8.607938,0.31305 -4.026364,1.5888 -6.90019,4.40084 -8.6215,8.43615 -1.72265,4.0086 -2.292856,7.96716 -1.710617,11.87566 0.580886,3.88178 1.731505,6.59293 3.451867,8.13342 1.744606,1.51235 3.73834,1.85831 5.981201,1.03788 0.202062,-0.0647 0.507171,-0.12172 0.915338,-0.17102 0.433751,-0.0506 1.276321,-0.64661 2.527698,-1.78777 3.312306,-3.02385 6.284318,-7.95902 8.916058,-14.80555 0.680152,-1.77986 1.160292,-3.20024 1.440398,-4.26111 0.02419,-0.53746 0.04778,-1.08829 0.07066,-1.65248 z" />
  <path
     d="m 225.79386,193.57994 c -2.55875,3.86134 -5.95352,5.77397 -10.18432,5.73789 -2.28225,-0.0276 -3.61673,-0.57909 -6.25875,-1.85681 -1.46648,-0.91055 -2.41849,-2.62832 -2.66386,-3.31882 -0.12064,-0.3794 -1.77591,-2.93282 -0.60875,-6.41983 0.95884,-2.86465 5.65857,-6.65633 5.91318,-6.83207 5.50742,-3.80148 10.53635,-6.97858 16.39541,-9.47288 2.51471,-1.07055 5.05713,-1.74406 6.84865,-2.36035 2.01048,-0.69163 5.26389,-1.88602 7.30737,-1.8762 0.18685,9e-4 0.22619,2.33827 -0.59887,3.38899 -0.65186,0.83016 -3.3932,1.78685 -4.90232,2.41205 -3.12298,1.29381 -2.73832,1.36291 -7.18646,2.63502 -4.29922,1.22952 -8.36786,3.8767 -11.49799,5.42707 -2.95214,1.4622 -6.7738,4.83687 -7.34424,5.46149 -0.53484,0.58564 -2.31591,4.53099 -0.65999,6.10606 2.83895,2.70041 6.32186,1.92899 8.55067,0.64577 3.39393,-1.95277 5.80702,-7.24325 7.23928,-15.87146 0.54633,-3.32833 0.23505,-11.03177 -0.1037,-15.61433 -0.23845,-3.22577 1.74053,-5.85682 3.43255,-3.68495 0.71551,0.91842 -0.092,-0.15787 0.79681,1.27532 3.44111,5.54853 0.85532,26.34206 -4.47467,34.21804 z"
     style="font-style:normal;font-variant:normal;font-weight:normal;font-stretch:normal;font-size:66.41434479px;line-height:1.25;font-family:Chilanka;-inkscape-font-specification:'Chilanka, Normal';font-variant-ligatures:normal;font-variant-caps:normal;font-variant-numeric:normal;font-feature-settings:normal;text-align:start;letter-spacing:0px;word-spacing:0px;writing-mode:lr-tb;text-anchor:start;fill:#000000;fill-opacity:1;stroke:#000000;stroke-width:1.45390797;stroke-linecap:round;stroke-miterlimit:4;stroke-dasharray:none;stroke-opacity:1"
     id="path1208" />
  <path
     id="path1222"
     d="m 6.9716468,87.784197 192.8048332,0"
     style="fill:none;stroke:#000000;stroke-width:4.96081829;stroke-linecap:round;stroke-linejoin:miter;stroke-miterlimit:4;stroke-dasharray:none;stroke-opacity:1" />
  <path
     id="path1226"
     d="m 6.9716477,264.38356 c 236.7548323,0 236.7548323,0 236.7548323,0"
     style="fill:none;stroke:#000000;stroke-width:4.96081829;stroke-linecap:round;stroke-linejoin:miter;stroke-miterlimit:4;stroke-dasharray:none;stroke-opacity:1" />
  <path
     id="path1254"
     d="m 213.94195,176.86185 h 30.56251"
     style="fill:none;stroke:#000000;stroke-width:4.96081829;stroke-linecap:round;stroke-linejoin:miter;stroke-miterlimit:4;stroke-dasharray:none;stroke-opacity:1" />
  <path
     id="path1256"
     style="font-style:normal;font-variant:normal;font-weight:normal;font-stretch:normal;font-size:66.41434479px;line-height:1.25;font-family:Chilanka;-inkscape-font-specification:'Chilanka, Normal';font-variant-ligatures:normal;font-variant-caps:normal;font-variant-numeric:normal;font-feature-settings:normal;text-align:start;letter-spacing:0px;word-spacing:0px;writing-mode:lr-tb;text-anchor:start;fill:#000000;fill-opacity:1;stroke:#000000;stroke-width:1.45390797;stroke-linecap:round;stroke-miterlimit:4;stroke-dasharray:none;stroke-opacity:1"
     d="m 231.15495,47.663869 0.13885,5.410964 c -4.64601,7.237737 -4.54597,3.850002 -5.13381,-5.215115 0.0365,-0.697019 0.319,-1.27923 0.84746,-1.746633 0.55352,-0.49478 1.13833,-0.722501 1.75444,-0.683188 0.6161,0.03925 1.1465,0.268012 1.59118,0.68616 0.44469,0.418134 0.68547,0.589373 0.7754,1.203147 z" />
  <path
     id="path1258"
     style="font-style:normal;font-variant:normal;font-weight:normal;font-stretch:normal;font-size:66.41434479px;line-height:1.25;font-family:Chilanka;-inkscape-font-specification:'Chilanka, Normal';font-variant-ligatures:normal;font-variant-caps:normal;font-variant-numeric:normal;font-feature-settings:normal;text-align:start;letter-spacing:0px;word-spacing:0px;writing-mode:lr-tb;text-anchor:start;fill:#000000;fill-opacity:1;stroke:#000000;stroke-width:1.45390797;stroke-linecap:round;stroke-miterlimit:4;stroke-dasharray:none;stroke-opacity:1"
     d="m 150.81889,150.54209 c 0.27225,-2.67558 -0.10621,-2.53978 0.98595,-5.10802 2.38665,-5.59992 3.59551,-6.48828 8.92986,-8.60478 2.65937,-0.41407 2.53671,-0.33773 -0.6104,3.15506 -7.19799,6.00501 -8.14554,12.22155 -9.30541,10.55774 z" />
  <path
     style="fill:none;stroke:#000000;stroke-width:4.96081829;stroke-linecap:round;stroke-linejoin:miter;stroke-miterlimit:4;stroke-dasharray:none;stroke-opacity:1"
     d="M 7.7496156,176.86185 H 126.9833"
     id="path1262" />
</svg>
