<?xml version="1.0" encoding="UTF-8" standalone="no"?>
<svg
   xmlns:dc="http://purl.org/dc/elements/1.1/"
   xmlns:cc="http://creativecommons.org/ns#"
   xmlns:rdf="http://www.w3.org/1999/02/22-rdf-syntax-ns#"
   xmlns:svg="http://www.w3.org/2000/svg"
   xmlns="http://www.w3.org/2000/svg"
   width="125px"
   height="125px"
   viewBox="0 0 300 300"
   version="1.1"
   id="svg2095">
  <defs
     id="defs2089" />
  <metadata
     id="metadata2092">
    <rdf:RDF>
      <cc:Work
         rdf:about="">
        <dc:format>image/svg+xml</dc:format>
        <dc:type
           rdf:resource="http://purl.org/dc/dcmitype/StillImage" />
        <dc:title></dc:title>
      </cc:Work>
    </rdf:RDF>
  </metadata>
  <g
     style="stroke-width:5.99999995;stroke-miterlimit:4;stroke-dasharray:none"
     id="layer1"
     transform="translate(0,3)">
    <g
       style="stroke-width:8.73153927;stroke-miterlimit:4;stroke-dasharray:none"
       id="g2688"
       transform="matrix(0.68256971,0,0,0.69178933,492.77646,101.04131)">
      <path
         id="rect2643"
         d="m -622.71575,-82.488091 h 34.44983 v 43.845238 h 34.44983 v -43.845238 h 34.44983 v 43.845238 h 34.44982 v -43.845238 h 34.44983 v 43.845238 h 34.44983 v -43.845238 h 34.44983 V 215.35712 h -241.1488 z"
         style="fill:none;fill-opacity:1;stroke:#000000;stroke-width:8.73153927;stroke-linecap:round;stroke-linejoin:round;stroke-miterlimit:4;stroke-dasharray:none;stroke-opacity:1;paint-order:fill markers stroke" />
      <path
         id="path2666"
         style="fill:none;stroke:#000000;stroke-width:8.73153927;stroke-linecap:round;stroke-linejoin:miter;stroke-miterlimit:4;stroke-dasharray:none;stroke-opacity:1"
         d="M -461.50891,9.3488327 V 51.070212 m -16.26427,-28.757109 h 32.52854" />
      <path
         d="M -542.77381,9.3488327 V 51.070212 m -16.26427,-28.757109 h 32.52854"
         style="fill:none;stroke:#000000;stroke-width:8.73153927;stroke-linecap:round;stroke-linejoin:miter;stroke-miterlimit:4;stroke-dasharray:none;stroke-opacity:1"
         id="path2663" />
      <path
         id="rect2670"
         d="m -549.76635,86.467262 c 31.24603,-16.630981 62.99603,-16.630924 95.25,0 V 214.97916 h -95.25 z"
         style="fill:none;fill-opacity:1;stroke:#000000;stroke-width:8.73153927;stroke-linecap:round;stroke-linejoin:round;stroke-miterlimit:4;stroke-dasharray:none;stroke-opacity:1;paint-order:fill markers stroke" />
      <path
         transform="matrix(0.26458333,0,0,0.26458333,0,-3)"
         id="path2675"
         d="M -2065.8074,578.63633 V 345.27431 l 15.3572,-7.19472 c 46.4637,-21.76798 91.7785,-32.82254 140.4254,-34.25684 58.5837,-1.72727 109.458,9.17586 168.146,36.03624 l 11.7857,5.3941 v 233.37263 233.37263 h -167.8571 -167.8572 z"
         style="fill:#000000;fill-opacity:1;stroke:#000000;stroke-width:33.0010937;stroke-linecap:round;stroke-linejoin:round;stroke-miterlimit:4;stroke-dasharray:none;stroke-opacity:1;paint-order:fill markers stroke" />
      <path
         style="fill:none;fill-opacity:1;stroke:#000000;stroke-width:8.73153927;stroke-linecap:round;stroke-linejoin:round;stroke-miterlimit:4;stroke-dasharray:none;stroke-opacity:1;paint-order:fill markers stroke"
         d="m -378.58086,15.24706 h 13.16479 v -32.083532 h 23.68372 V 15.24706 h 23.68372 v -32.083532 h 23.68372 V 201.11026 h -82.89304"
         id="path2677" />
      <path
         id="path2679"
         d="m -625.78969,15.247053 h -13.16479 v -32.083532 h -23.68372 v 32.083532 h -23.68372 v -32.083532 h -23.68372 V 201.11026 h 82.89304"
         style="fill:none;fill-opacity:1;stroke:#000000;stroke-width:8.73153927;stroke-linecap:round;stroke-linejoin:round;stroke-miterlimit:4;stroke-dasharray:none;stroke-opacity:1;paint-order:fill markers stroke" />
    </g>
  </g>
</svg>
