<?xml version="1.0" encoding="UTF-8" standalone="no"?>
<svg
   xmlns:dc="http://purl.org/dc/elements/1.1/"
   xmlns:cc="http://creativecommons.org/ns#"
   xmlns:rdf="http://www.w3.org/1999/02/22-rdf-syntax-ns#"
   xmlns:svg="http://www.w3.org/2000/svg"
   xmlns="http://www.w3.org/2000/svg"
   width="125px"
   height="125px"
   viewBox="0 0 300 297"
   version="1.1"
   id="svg4675">
  <defs
     id="defs4669" />
  <metadata
     id="metadata4672">
    <rdf:RDF>
      <cc:Work
         rdf:about="">
        <dc:format>image/svg+xml</dc:format>
        <dc:type
           rdf:resource="http://purl.org/dc/dcmitype/StillImage" />
        <dc:title></dc:title>
      </cc:Work>
    </rdf:RDF>
  </metadata>
  <g
     style="stroke-width:6.00000006;stroke-miterlimit:4;stroke-dasharray:none"
     id="layer1">
    <path
       id="path5274"
       style="fill:none;stroke:#000000;stroke-width:6.00000006;stroke-linecap:round;stroke-linejoin:round;stroke-miterlimit:4;stroke-dasharray:none;stroke-opacity:1"
       d="m 116.68909,207.15229 c 3.46008,2.1533 5.34234,5.27534 10.19078,6.57623 6.62939,1.77874 18.31437,0.45346 24.94376,2.2322 6.98935,1.87532 8.50774,7.73109 15.4971,9.60641 5.08219,1.36361 15.63538,-1.25321 20.71757,0.11041 5.8737,1.57597 12.64076,7.94013 18.51445,9.51609 7.25318,1.94611 13.61299,-0.89594 20.8662,1.05016 5.4176,1.4536 11.74106,9.00359 17.15867,10.45719 7.55281,2.02651 14.19971,-2.04339 21.75252,-0.0168 4.90327,1.31561 8.15335,7.00909 13.05663,8.32471 5.57407,1.49557 9.49663,-2.27836 15.0707,-0.78277 m -180.01798,-33.19562 179.2601,47.59769 m 0.88206,-35.80732 v 52.72997 0 M 113.99004,185.55691 v 52.72994 0 m 119.47196,-94.60744 -119.47196,41.8775 180.59161,47.26397 z m -119.47196,94.60744 180.59161,47.264 M 139.59852,105.26467 c 0,10.83458 -28.43208,19.61775 -63.504821,19.61775 -35.07274,0 -63.504815,-8.78317 -63.50482,-19.61775 5e-6,-10.834579 28.43208,-19.617746 63.50482,-19.617746 35.072741,0 63.504821,8.783167 63.504821,19.617746 z M 147.87617,31.822088 131.62631,176.80201 M 5.37626,30.867276 22.995896,215.3816 m 90.714854,12.55751 c -9.53631,3.73497 -23.292766,6.07984 -38.587613,6.07984 -28.791506,0 -52.131633,-8.3091 -52.131636,-18.5589 3e-6,-10.24979 23.34013,-18.55888 52.131636,-18.55888 15.01773,0 28.552313,2.26064 38.065103,5.87818 M 147.98079,30.747777 c 0,10.68517 -31.92311,19.347213 -71.30227,19.347212 -39.379154,0 -71.3022633,-8.662043 -71.3022611,-19.347212 0,-10.685171 31.9231101,-19.347212 71.3022611,-19.347212 39.37916,-2e-6 71.30227,8.662041 71.30227,19.347212 z" />
  </g>
</svg>
