<?xml version="1.0" encoding="UTF-8" standalone="no"?>
<svg
   xmlns:dc="http://purl.org/dc/elements/1.1/"
   xmlns:cc="http://creativecommons.org/ns#"
   xmlns:rdf="http://www.w3.org/1999/02/22-rdf-syntax-ns#"
   xmlns:svg="http://www.w3.org/2000/svg"
   xmlns="http://www.w3.org/2000/svg"
   id="svg8"
   version="1.1"
   viewBox="0 0 300 300"
   height="125px"
   width="125px">
  <defs
     id="defs2" />
  <metadata
     id="metadata5">
    <rdf:RDF>
      <cc:Work
         rdf:about="">
        <dc:format>image/svg+xml</dc:format>
        <dc:type
           rdf:resource="http://purl.org/dc/dcmitype/StillImage" />
        <dc:title></dc:title>
      </cc:Work>
    </rdf:RDF>
  </metadata>
  <g
     transform="translate(0,3)"
     id="layer1"
     style="stroke-width:5.99999995;stroke-miterlimit:4;stroke-dasharray:none">
    <g
       style="stroke-linecap:round;stroke-linejoin:round;stroke-width:10.29150173;stroke-miterlimit:4;stroke-dasharray:none"
       transform="matrix(0.58300529,0,0,0.58300529,-61.046029,101.49506)"
       id="g827" />
    <g
       transform="matrix(1.0771751,0,0,1.0607654,-10.031832,-16.041487)"
       id="g899"
       style="stroke-width:5.61304367;stroke-miterlimit:4;stroke-dasharray:none">
      <g
         id="g854"
         transform="matrix(0.66663233,0.4356286,-0.43640814,0.66544156,406.84198,144.13347)"
         style="stroke-width:7.05100198;stroke-miterlimit:4;stroke-dasharray:none" />
      <path
         id="path866"
         style="fill:none;stroke:#000000;stroke-width:5.61304367;stroke-linecap:round;stroke-linejoin:round;stroke-miterlimit:4;stroke-dasharray:none;stroke-opacity:1"
         d="m 148.86795,267.59192 0.40668,19.50952 m 0.0813,-35.5906 -15.37257,25.30525 26.59698,-0.48978 M 26.996262,133.34081 c 0.569719,-4.01928 6.331229,-6.12377 11.272974,-5.89458 5.587829,0.42218 11.175625,4.43463 10.956831,10.36188 -0.32926,5.81857 -6.481917,6.48702 -14.553977,8.15608 8.765717,-1.50511 15.192094,3.91804 15.252525,8.98209 0.113348,4.66889 -3.530401,7.90168 -10.521543,8.50162 -6.450407,0.27709 -16.248206,-2.79672 -15.457458,-7.78533 m 39.415912,54.09025 h 31.627121 v 31.62712 H 63.361526 Z M 191.00197,192.76353 226.97505,241.87158 63.361528,241.37994 64.637176,20.258711 c 0,0 63.882224,87.207769 98.552854,134.537799 m -22.17775,70.22353 0.42188,-6.10495 1.09471,-0.37429 c 1.75683,-0.60068 2.93034,-0.53357 4.34349,0.24838 0.66358,0.36719 1.65483,1.07665 2.20302,1.57624 0.87018,0.79344 1.04838,1.08886 1.40574,2.33047 0.22508,0.78201 0.42744,1.72211 0.4497,2.0891 l 0.0405,0.66725 -5.1634,2.85403 c -2.83987,1.5697 -5.17556,2.84606 -5.19042,2.83635 -0.0149,-0.01 0.1628,-2.76488 0.39481,-6.12258 z m -1.5801,-7.61168 c 6.31862,-3.05907 8.03983,-1.15666 9.92878,0.0251 1.87158,1.53951 3.36008,1.51417 3.93555,8.85525 v 0 m -12.05314,-35.55402 -3.0332,44.20009 38.1868,-21.22804 M 261.49326,45.662959 c -8.81151,-5.70784 -20.17654,-7.521588 -25.23757,0.195551 l -95.01232,144.87618 0.47898,0.313 c 3.07232,-2.0841 6.60572,-2.33955 9.17623,-0.6634 2.15652,1.41303 3.35644,4.0131 3.24435,7.03013 2.72331,-1.30846 5.58853,-1.2518 7.74813,0.1532 2.15652,1.41303 3.35644,4.0131 3.24435,7.03013 2.72343,-1.30852 5.58878,-1.2518 7.7484,0.15337 2.56773,1.68103 3.74694,5.01614 3.0623,8.661 l 0.45086,0.29462 95.01231,-144.876179 c 5.15335,-7.857905 -1.10451,-17.459758 -9.91602,-23.167602 z" />
      <path
         style="fill:#000000;fill-opacity:1;stroke:#000000;stroke-width:5.61304379;stroke-linecap:butt;stroke-linejoin:miter;stroke-miterlimit:4;stroke-dasharray:none;stroke-opacity:1"
         d="m 141.43416,218.91509 c 14.00363,6.64824 12.1743,5.21837 12.1743,5.21837 l -11.28734,6.76649 z"
         id="path873" />
    </g>
  </g>
</svg>
