<?xml version="1.0" encoding="UTF-8" standalone="no"?>
<svg
   xmlns:dc="http://purl.org/dc/elements/1.1/"
   xmlns:cc="http://creativecommons.org/ns#"
   xmlns:rdf="http://www.w3.org/1999/02/22-rdf-syntax-ns#"
   xmlns:svg="http://www.w3.org/2000/svg"
   xmlns="http://www.w3.org/2000/svg"
   id="svg1079"
   version="1.1"
   viewBox="0 0 300 300"
   height="125px"
   width="125px">
  <defs
     id="defs1073" />
  <metadata
     id="metadata1076">
    <rdf:RDF>
      <cc:Work
         rdf:about="">
        <dc:format>image/svg+xml</dc:format>
        <dc:type
           rdf:resource="http://purl.org/dc/dcmitype/StillImage" />
        <dc:title></dc:title>
      </cc:Work>
    </rdf:RDF>
  </metadata>
  <g
     transform="translate(0,3)"
     id="layer1">
    <path
       transform="matrix(0.26458333,0,0,0.26458333,0,-3)"
       id="path1655"
       d=""
       style="fill:none;fill-opacity:1;stroke:#000000;stroke-width:64.79190063;stroke-linecap:round;stroke-linejoin:round;stroke-miterlimit:4;stroke-dasharray:none;stroke-opacity:1;paint-order:fill markers stroke" />
    <g
       style="stroke-width:5.6079073;stroke-miterlimit:4;stroke-dasharray:none"
       transform="matrix(1.0699178,0,0,1.0699178,-10.266137,-12.376924)"
       id="g2021">
      <path
         d="m 114.46746,130.23071 c -2.38925,-7.51172 -12.98304,-9.09985 -17.271435,-3.32225 m -29.385669,3.32225 c 2.389249,-7.51172 12.983023,-9.09985 17.27144,-3.32225 m -2.541839,51.04162 c 4.759492,0.18899 0.672694,-0.0869 -3.021043,-1.13216 -17.871707,-5.05743 -30.966086,-21.49026 -30.96609,-40.98145 -4e-6,-23.51965 19.066446,-42.586083 42.586091,-42.586081 23.519645,-4e-6 42.586095,19.066431 42.586095,42.586081 0,11.56774 -4.61217,22.05825 -12.0979,29.73293 -1.81922,1.86513 -0.0284,0.63465 -2.1621,2.14222 m -14.84994,-14.68289 c -5.387435,9.98058 -22.437308,9.31545 -26.954426,0"
         style="fill:none;stroke:#000000;stroke-width:5.6079073;stroke-linecap:round;stroke-linejoin:miter;stroke-miterlimit:4;stroke-dasharray:none;stroke-opacity:1"
         id="path953" />
      <g
         id="g1836"
         transform="matrix(0.47692048,0,0,0.47231473,307.22983,89.755136)"
         style="stroke-width:11.81577206;stroke-miterlimit:4;stroke-dasharray:none">
        <g
           id="g842"
           transform="translate(-419.94222,-177.59727)"
           style="stroke-width:11.81577206;stroke-miterlimit:4;stroke-dasharray:none">
          <g
             transform="translate(0,3)"
             id="layer1-1"
             style="stroke-width:11.81577206;stroke-miterlimit:4;stroke-dasharray:none">
            <g
               transform="matrix(0.94233182,0,0,0.94233182,14.153327,-2.0393829)"
               id="g1019"
               style="stroke-width:12.53886604;stroke-miterlimit:4;stroke-dasharray:none">
              <path
                 id="path851"
                 d="m 263.6006,108.91904 c 0,50.51761 -53.47533,91.47024 -119.44048,91.47024 -19.13367,0 -37.21653,-3.44548 -53.2484,-9.57047 -7.42918,-2.83832 -36.012907,32.42213 -42.461697,28.50923 -6.63052,-4.02317 8.904767,-47.24821 3.524087,-52.24395 -17.02694,-15.80876 -27.25446,-36.07222 -27.25446,-58.16505 0,-50.517615 53.47532,-91.470235 119.44047,-91.470235 65.96515,0 119.44048,40.95262 119.44048,91.470235 z"
                 style="fill:none;fill-opacity:1;stroke:#000000;stroke-width:12.53886604;stroke-linecap:round;stroke-linejoin:round;stroke-miterlimit:4;stroke-dasharray:none;stroke-opacity:1;paint-order:fill markers stroke" />
              <g
                 style="stroke-width:12.53886604;stroke-miterlimit:4;stroke-dasharray:none"
                 transform="translate(67.32607,5.08161)"
                 id="g825">
                <g
                   transform="translate(190.83234,289.77801)"
                   style="stroke-width:12.53886604;stroke-miterlimit:4;stroke-dasharray:none"
                   id="g4563">
                  <g
                     id="g4536"
                     transform="rotate(39.781646,0.80404935,-1.8785156)"
                     style="stroke-width:12.53886604;stroke-miterlimit:4;stroke-dasharray:none" />
                </g>
              </g>
              <g
                 style="stroke-width:12.53886604;stroke-miterlimit:4;stroke-dasharray:none"
                 id="g871"
                 transform="translate(67.32607,-67.56543)">
                <g
                   id="g869"
                   style="stroke-width:12.53886604;stroke-miterlimit:4;stroke-dasharray:none"
                   transform="translate(190.83234,289.77801)">
                  <g
                     style="stroke-width:12.53886604;stroke-miterlimit:4;stroke-dasharray:none"
                     transform="rotate(39.781646,0.80404935,-1.8785156)"
                     id="g865" />
                </g>
              </g>
            </g>
            <g
               style="stroke-width:11.81577206;stroke-miterlimit:4;stroke-dasharray:none"
               transform="translate(-1.1154117,-3.7797619)"
               id="g1052" />
          </g>
        </g>
        <g
           id="g1819"
           style="stroke-width:11.81577206;stroke-miterlimit:4;stroke-dasharray:none">
          <ellipse
             style="fill:#000000;fill-opacity:1;stroke:#000000;stroke-width:11.81577206;stroke-linecap:round;stroke-linejoin:round;stroke-miterlimit:4;stroke-dasharray:none;stroke-opacity:1;paint-order:fill markers stroke"
             id="path1809"
             cx="-286.78021"
             cy="-39.225067"
             rx="27.528765"
             ry="16.570711" />
          <rect
             style="fill:#000000;fill-opacity:1;stroke:#000000;stroke-width:11.81577206;stroke-linecap:round;stroke-linejoin:round;stroke-miterlimit:4;stroke-dasharray:none;stroke-opacity:1;paint-order:fill markers stroke"
             id="rect1811"
             width="8.5526247"
             height="72.162773"
             x="-267.80408"
             y="-114.06053" />
          <path
             style="fill:#000000;fill-opacity:1;stroke:#000000;stroke-width:11.81577206;stroke-linecap:round;stroke-linejoin:round;stroke-miterlimit:4;stroke-dasharray:none;stroke-opacity:1;paint-order:fill markers stroke"
             d="m -267.80407,-132.23486 c 0,0 13.26458,-1.58898 21.75203,3.05208 8.48745,4.64106 13.77927,11.12322 18.87293,27.41665 0,0 -12.11946,-7.56258 -18.87293,-9.62841 -6.98543,-2.13678 -21.75203,-2.66599 -21.75203,-2.66599 z"
             id="rect1813" />
        </g>
      </g>
      <g
         id="g1992"
         style="stroke-width:5.6079073;stroke-miterlimit:4;stroke-dasharray:none"
         transform="rotate(60.677504,-209.94575,552.95421)">
        <path
           d="m -340.19249,67.982664 c 1.00692,0.291553 1.15058,0.09567 2.13791,0.455808 10.62575,3.875799 19.76228,11.784793 19.76427,25.049458 0.007,45.80681 13.82621,37.05008 14.12317,66.351 0.28413,28.03552 -22.72232,40.65788 -50.75929,40.66208 -28.03696,0.004 -50.76752,-13.99238 -50.77151,-40.64682 -0.004,-26.65445 14.11011,-20.57369 14.10323,-66.355249 -0.002,-11.86034 9.79403,-20.594507 19.92915,-24.934941 1.34297,-0.575142 0.57154,0.146859 1.90887,-0.291776"
           style="fill:none;fill-opacity:1;stroke:#000000;stroke-width:5.6079073;stroke-linecap:round;stroke-linejoin:round;stroke-miterlimit:4;stroke-dasharray:none;stroke-opacity:1;paint-order:fill markers stroke"
           id="path1628" />
        <path
           id="path1638"
           d="m -357.28144,144.24453 c -6.77367,-0.84412 -12.90601,-5.73834 -15.25418,-12.17434 -4.42799,-12.13649 4.542,-25.09887 17.39404,-25.1358 4.66392,-0.0134 8.00953,1.11105 11.75384,3.95043 3.13187,2.37495 5.52917,6.01822 6.63261,10.07983 0.64863,2.38753 0.65317,6.85358 0.009,9.26838 -0.63209,2.37109 -2.31043,5.60023 -3.87927,7.46376 -3.99227,4.74218 -10.52815,7.31145 -16.65648,6.54774 z"
           style="fill:#000000;fill-opacity:1;stroke:#000000;stroke-width:5.6079073;stroke-linecap:round;stroke-linejoin:round;stroke-miterlimit:4;stroke-dasharray:none;stroke-opacity:1;paint-order:fill markers stroke" />
        <path
           style="fill:#000000;fill-opacity:1;stroke:#000000;stroke-width:5.6079073;stroke-linecap:round;stroke-linejoin:round;stroke-miterlimit:4;stroke-dasharray:none;stroke-opacity:1;paint-order:fill markers stroke"
           d="m -375.16344,158.58501 43.18219,-0.006 10e-4,9.05772 -43.1822,0.006 z"
           id="rect1640" />
        <path
           style="fill:none;fill-opacity:1;stroke:#000000;stroke-width:5.6079073;stroke-linecap:round;stroke-linejoin:round;stroke-miterlimit:4;stroke-dasharray:none;stroke-opacity:1;paint-order:fill markers stroke"
           d="m -369.70591,-36.261568 29.49027,-0.0044 0.0177,117.961121 -29.49028,0.0044 z"
           id="rect1647" />
        <path
           style="fill:none;fill-opacity:1;stroke:#000000;stroke-width:5.6079073;stroke-linecap:round;stroke-linejoin:round;stroke-miterlimit:4;stroke-dasharray:none;stroke-opacity:1;paint-order:fill markers stroke"
           d="m -373.71509,-82.392202 37.49479,-0.0056 0.007,45.920576 -37.4948,0.0056 z"
           id="rect1651" />
        <path
           id="path1901"
           d="M -359.61213,-63.960363 V 163.00359"
           style="fill:none;stroke:#000000;stroke-width:5.6079073;stroke-linecap:butt;stroke-linejoin:miter;stroke-miterlimit:4;stroke-dasharray:none;stroke-opacity:1" />
        <ellipse
           transform="scale(-1,1)"
           style="fill:#000000;fill-opacity:1;stroke:#000000;stroke-width:5.6079073;stroke-linecap:round;stroke-linejoin:round;stroke-miterlimit:4;stroke-dasharray:none;stroke-opacity:1;paint-order:fill markers stroke"
           id="ellipse1925"
           cx="347.3425"
           cy="-64.32621"
           rx="3.6272492"
           ry="3.36816" />
        <path
           style="fill:none;stroke:#000000;stroke-width:5.6079073;stroke-linecap:butt;stroke-linejoin:miter;stroke-miterlimit:4;stroke-dasharray:none;stroke-opacity:1"
           d="M -350.8334,-63.960363 V 163.00359"
           id="path1927" />
        <ellipse
           ry="3.36816"
           rx="3.6272492"
           cy="-64.32621"
           cx="363.2175"
           id="ellipse1981"
           style="fill:#000000;fill-opacity:1;stroke:#000000;stroke-width:5.6079073;stroke-linecap:round;stroke-linejoin:round;stroke-miterlimit:4;stroke-dasharray:none;stroke-opacity:1;paint-order:fill markers stroke"
           transform="scale(-1,1)" />
      </g>
    </g>
  </g>
</svg>
