<?xml version="1.0" encoding="UTF-8" standalone="no"?>
<svg
   xmlns:dc="http://purl.org/dc/elements/1.1/"
   xmlns:cc="http://creativecommons.org/ns#"
   xmlns:rdf="http://www.w3.org/1999/02/22-rdf-syntax-ns#"
   xmlns:svg="http://www.w3.org/2000/svg"
   xmlns="http://www.w3.org/2000/svg"
   id="svg926"
   version="1.1"
   viewBox="0 0 300 300"
   height="125px"
   width="125px">
  <defs
     id="defs920" />
  <metadata
     id="metadata923">
    <rdf:RDF>
      <cc:Work
         rdf:about="">
        <dc:format>image/svg+xml</dc:format>
        <dc:type
           rdf:resource="http://purl.org/dc/dcmitype/StillImage" />
        <dc:title></dc:title>
      </cc:Work>
    </rdf:RDF>
  </metadata>
  <g
     transform="translate(0,3)"
     id="layer1">
    <path
       d="M 154.75325,197.26106 177.121,184.1599 c 0,0 50.78672,86.70876 53.65234,91.60128 4.42734,7.55885 -17.81115,20.88067 -22.36774,13.10116 -3.15071,-5.37922 -53.65235,-91.60128 -53.65235,-91.60128 z m 11.31916,-6.69573 c -1.57998,0.92543 -12.61267,7.26733 -14.26502,7.99898 C 118.65965,213.24375 71.786725,189.33961 44.460898,142.68592 16.886971,95.608608 19.252929,42.501692 49.027046,21.141038 50.229924,20.27806 56.843117,16.605205 58.135288,15.848354 M 193.66268,131.00703 c 0.50681,26.20567 -8.85943,48.5874 -27.59025,59.55835 C 132.79567,210.05612 82.563363,186.15095 53.875448,137.17172 26.396365,90.256352 28.651552,37.352778 58.135319,15.848394 59.432338,14.902388 60.782054,14.01715 62.184263,13.195857 92.044281,-4.2936447 135.5567,13.158755 164.90478,52.315268 m 32.5474,77.311022 c 0,0 -3.61078,-22.51738 14.04995,-29.51128 17.6607,-6.993917 23.39146,-1.228324 34.12358,-8.677292 10.73212,-7.448966 10.26069,-20.752068 1.81008,-34.330268 -8.45062,-13.578199 -20.41209,-16.968594 -31.11664,-11.223734 -10.70455,5.74485 -8.83543,18.119846 -21.71215,29.080812 -12.87674,10.960964 -33.63731,0.281804 -33.63731,0.281804 m 26.5659,-48.165543 c 27.16351,-17.3516334 63.25017,-9.397542 80.60181,17.765962 17.35165,27.16351 9.39757,63.250179 -17.76594,80.601829 -27.16352,17.35166 -63.25021,9.39756 -80.60185,-17.76597 -17.35164,-27.163518 -9.39754,-63.250182 17.76598,-80.601821 z"
       style="fill:none;fill-opacity:1;stroke:#000000;stroke-width:6;stroke-linecap:round;stroke-linejoin:round;stroke-miterlimit:4;stroke-dasharray:none;stroke-opacity:1;paint-order:fill markers stroke"
       id="rect1495" />
  </g>
</svg>
