<?xml version="1.0" encoding="UTF-8" standalone="no"?>
<svg
   xmlns:dc="http://purl.org/dc/elements/1.1/"
   xmlns:cc="http://creativecommons.org/ns#"
   xmlns:rdf="http://www.w3.org/1999/02/22-rdf-syntax-ns#"
   xmlns:svg="http://www.w3.org/2000/svg"
   xmlns="http://www.w3.org/2000/svg"
   width="125px"
   height="125px"
   viewBox="0 0 300 300"
   version="1.1"
   id="svg8">
  <defs
     id="defs2" />
  <metadata
     id="metadata5">
    <rdf:RDF>
      <cc:Work
         rdf:about="">
        <dc:format>image/svg+xml</dc:format>
        <dc:type
           rdf:resource="http://purl.org/dc/dcmitype/StillImage" />
        <dc:title></dc:title>
      </cc:Work>
    </rdf:RDF>
  </metadata>
  <flowRoot
     transform="scale(2.4)"
     style="font-style:normal;font-weight:normal;font-size:40px;line-height:1.25;font-family:sans-serif;letter-spacing:0px;word-spacing:0px;fill:#000000;fill-opacity:1;stroke:none"
     id="flowRoot1144"
     xml:space="preserve"><flowRegion
       id="flowRegion1146"><rect
         y="7.7730813"
         x="19.849926"
         height="61.79694"
         width="94.006248"
         id="rect1148" /></flowRegion><flowPara
       id="flowPara1150">gfsgauadsahfhjdhf</flowPara></flowRoot>  <flowRoot
     style="fill:black;fill-opacity:1;stroke:none;font-family:sans-serif;font-style:normal;font-weight:normal;font-size:40px;line-height:1.25;letter-spacing:0px;word-spacing:0px"
     id="flowRoot1164"
     xml:space="preserve"><flowRegion
       id="flowRegion1166"><rect
         y="-38.668255"
         x="-58.05167"
         height="66.665787"
         width="266.28864"
         id="rect1168" /></flowRegion><flowPara
       id="flowPara1170"></flowPara></flowRoot>  <flowRoot
     style="fill:black;fill-opacity:1;stroke:none;font-family:Purisa;font-style:normal;font-weight:normal;font-size:40px;line-height:1.25;letter-spacing:0px;word-spacing:0px;-inkscape-font-specification:'Purisa, Normal';font-stretch:normal;font-variant:normal;text-anchor:start;text-align:start;writing-mode:lr;font-variant-ligatures:normal;font-variant-caps:normal;font-variant-numeric:normal;font-feature-settings:normal;"
     id="flowRoot1172"
     xml:space="preserve"><flowRegion
       style="-inkscape-font-specification:'Purisa, Normal';font-family:Purisa;font-weight:normal;font-style:normal;font-stretch:normal;font-variant:normal;font-size:40px;text-anchor:start;text-align:start;writing-mode:lr;font-variant-ligatures:normal;font-variant-caps:normal;font-variant-numeric:normal;font-feature-settings:normal;"
       id="flowRegion1174"><rect
         style="-inkscape-font-specification:'Purisa, Normal';font-family:Purisa;font-weight:normal;font-style:normal;font-stretch:normal;font-variant:normal;font-size:40px;text-anchor:start;text-align:start;writing-mode:lr;font-variant-ligatures:normal;font-variant-caps:normal;font-variant-numeric:normal;font-feature-settings:normal;"
         y="-141.94916"
         x="-76.271187"
         height="138.77118"
         width="475.63559"
         id="rect1176" /></flowRegion><flowPara
       id="flowPara1180"></flowPara></flowRoot>  <flowRoot
     style="fill:black;fill-opacity:1;stroke:none;font-family:sans-serif;font-style:normal;font-weight:normal;font-size:40px;line-height:1.25;letter-spacing:0px;word-spacing:0px"
     id="flowRoot1209"
     xml:space="preserve"><flowRegion
       id="flowRegion1211"><rect
         y="-131.92545"
         x="-58.800724"
         height="63.295044"
         width="525.46124"
         id="rect1213" /></flowRegion><flowPara
       id="flowPara1215"></flowPara></flowRoot>  <path
     id="path1207"
     d="m 143.54492,34.833984 c -16.62465,0.04576 -33.362,4.284028 -48.673826,13.402344 -40.6248,24.192397 -58.065196,78.670892 -32.265625,120.041012 20.625892,33.07404 66.040741,47.17345 99.753911,24.69727 25.53723,-17.02537 36.3352,-53.49434 17.07617,-79.48828 -6.679,-9.01466 -16.86213,-15.359073 -27.7168,-17.501955 -10.85467,-2.142882 -22.49807,0.0136 -31.55078,8.154295 a 2.400243,2.400243 0 1 0 3.20898,3.57031 c 7.85562,-7.0642 17.77642,-8.917857 27.41211,-7.01562 9.6357,1.90224 18.8676,7.6575 24.79102,15.65234 17.45929,23.56484 7.54018,57.01764 -15.88477,72.63477 -31.2777,20.85248 -73.741981,7.66662 -93.017576,-23.24219 C 42.397577,126.80457 58.905182,75.239386 97.326172,52.359375 143.88794,24.631465 204.6009,44.489009 231.05469,90.439453 c 31.18818,54.174137 7.9637,124.061907 -45.52735,154.070317 -25.70761,14.42194 -56.34002,18.9566 -85.22265,13.14843 a 2.4005079,2.4005079 0 1 0 -0.945315,4.70703 C 129.3572,268.39766 161.12432,263.70241 187.875,248.69531 243.62137,217.42167 267.80317,144.6545 235.21289,88.044922 216.14217,54.918925 180.11916,34.733303 143.54492,34.833984 Z"
     style="color:#000000;font-style:normal;font-variant:normal;font-weight:normal;font-stretch:normal;font-size:medium;line-height:normal;font-family:sans-serif;font-variant-ligatures:normal;font-variant-position:normal;font-variant-caps:normal;font-variant-numeric:normal;font-variant-alternates:normal;font-feature-settings:normal;text-indent:0;text-align:start;text-decoration:none;text-decoration-line:none;text-decoration-style:solid;text-decoration-color:#000000;letter-spacing:normal;word-spacing:normal;text-transform:none;writing-mode:lr-tb;direction:ltr;text-orientation:mixed;dominant-baseline:auto;baseline-shift:baseline;text-anchor:start;white-space:normal;shape-padding:0;clip-rule:nonzero;display:inline;overflow:visible;visibility:visible;opacity:1;isolation:auto;mix-blend-mode:normal;color-interpolation:sRGB;color-interpolation-filters:linearRGB;solid-color:#000000;solid-opacity:1;vector-effect:none;fill:#000000;fill-opacity:1;fill-rule:evenodd;stroke:#000000;stroke-width:1.2;stroke-linecap:round;stroke-linejoin:miter;stroke-miterlimit:4;stroke-dasharray:none;stroke-dashoffset:0;stroke-opacity:1;color-rendering:auto;image-rendering:auto;shape-rendering:auto;text-rendering:auto;enable-background:accumulate" />
  <g
     id="text1221"
     style="font-style:normal;font-variant:normal;font-weight:normal;font-stretch:normal;font-size:66.41434479px;line-height:1.25;font-family:Chilanka;-inkscape-font-specification:'Chilanka, Normal';font-variant-ligatures:normal;font-variant-caps:normal;font-variant-numeric:normal;font-feature-settings:normal;text-align:start;letter-spacing:0px;word-spacing:0px;writing-mode:lr-tb;text-anchor:start;fill:#000000;fill-opacity:1;stroke:none;stroke-width:1.2;stroke-linecap:round;stroke-miterlimit:4;stroke-dasharray:none"
     aria-label="ee  ai  ou  ow  oa  ea  ay  oo">
    <path
       id="path1330"
       style="font-style:normal;font-variant:normal;font-weight:normal;font-stretch:normal;font-size:66.41434479px;font-family:Chilanka;-inkscape-font-specification:'Chilanka, Normal';font-variant-ligatures:normal;font-variant-caps:normal;font-variant-numeric:normal;font-feature-settings:normal;text-align:start;writing-mode:lr-tb;text-anchor:start;stroke-width:1.2;stroke-linecap:round;stroke-miterlimit:4;stroke-dasharray:none;stroke:#000000;stroke-opacity:1"
       d="m 125.2137,89.836606 q 0.83966,1.495457 2.19101,2.629772 3.41752,2.993141 8.95584,2.017091 5.56198,-1.015346 12.31766,-6.771857 0.66923,-0.533973 1.55789,-0.454183 0.88083,0.04832 1.41481,0.717542 0.56544,0.661399 0.48565,1.55006 -0.0561,0.849366 -0.71754,1.41481 -7.64538,6.478967 -14.74924,7.744022 -7.0724,1.257231 -12.04557,-3.019925 -4.2189,-3.662707 -4.99761,-9.751342 -0.77872,-6.088635 2.46076,-11.472123 4.19314,-6.923838 13.19376,-9.161744 4.56324,-1.134603 7.97482,0.356284 3.97753,1.751162 4.56199,5.98337 0.61594,4.224382 -3.25924,8.529528 -5.70253,6.363478 -18.82581,9.626439 -0.25176,0.0626 -0.51918,0.06226 z m -1.30081,-3.75335 q 0.36217,-0.290547 0.80276,-0.400095 11.86445,-2.949967 16.73207,-8.370695 2.53621,-2.836075 2.20112,-5.258975 -0.26519,-1.738541 -2.24613,-2.582652 -1.9573,-0.883406 -5.07289,-0.108746 -7.36414,1.831014 -10.62727,7.253797 -2.64833,4.401099 -1.78966,9.467366 z" />
    <path
       id="path1332"
       style="font-style:normal;font-variant:normal;font-weight:normal;font-stretch:normal;font-size:66.41434479px;font-family:Chilanka;-inkscape-font-specification:'Chilanka, Normal';font-variant-ligatures:normal;font-variant-caps:normal;font-variant-numeric:normal;font-feature-settings:normal;text-align:start;writing-mode:lr-tb;text-anchor:start;stroke-width:1.2;stroke-linecap:round;stroke-miterlimit:4;stroke-dasharray:none;stroke:#000000;stroke-opacity:1"
       d="m 166.59555,90.840278 q -0.62679,1.596418 -0.65016,3.360585 -0.15551,4.540275 4.10452,8.211497 4.30542,3.66467 13.03761,5.25391 0.83693,0.18038 1.33741,0.91903 0.5199,0.71267 0.33952,1.5496 -0.15441,0.85635 -0.89306,1.35683 -0.69325,0.49394 -1.5496,0.33953 -9.85456,-1.82109 -15.32894,-6.52178 -5.44841,-4.68127 -5.28286,-11.238636 0.16696,-5.584502 4.38919,-10.039913 4.22222,-4.45541 10.44078,-5.35304 8.01477,-1.133741 15.44261,4.420218 3.76587,2.815818 4.76991,6.40099 1.16059,4.188122 -1.74696,7.318513 -2.88158,3.149812 -8.6673,2.872883 -8.53586,-0.389658 -19.36596,-8.487563 -0.20778,-0.155355 -0.37671,-0.362654 z m 2.08349,-3.382134 q 0.45414,0.09662 0.81774,0.368496 9.79125,7.321127 17.06879,7.660736 3.80092,0.169568 5.46515,-1.622938 1.17851,-1.305363 0.5788,-3.373452 -0.55432,-2.074641 -3.1255,-3.997165 -6.07733,-4.544148 -12.34127,-3.639966 -5.08379,0.733829 -8.46371,4.604289 z" />
    <path
       id="path1334"
       style="font-style:normal;font-variant:normal;font-weight:normal;font-stretch:normal;font-size:66.41434479px;font-family:Chilanka;-inkscape-font-specification:'Chilanka, Normal';font-variant-ligatures:normal;font-variant-caps:normal;font-variant-numeric:normal;font-feature-settings:normal;text-align:start;writing-mode:lr-tb;text-anchor:start;stroke-width:1.2;stroke-linecap:round;stroke-miterlimit:4;stroke-dasharray:none;stroke:#000000;stroke-opacity:1"
       d="m 191.24431,195.49101 q -0.97077,-0.26719 -2.02925,-1.41217 -10.02004,-7.21244 -15.98934,-8.82509 -0.84242,-0.2297 -1.25706,-0.99814 -0.43102,-0.74045 -0.20132,-1.58287 0.21333,-0.81442 0.99814,-1.25706 0.74045,-0.43102 1.58287,-0.20132 3.75471,1.03127 8.71425,3.85662 -2.73931,-5.20851 -3.40662,-9.65606 -0.40314,-2.71522 0.54689,-4.78934 0.59087,-2.3593 2.20112,-4.08488 1.59388,-1.69758 3.90557,-2.37427 4.4903,-1.31853 10.10843,1.21576 5.62974,2.57866 8.99228,7.81354 4.00799,6.25102 2.44083,13.2988 -1.33747,6.20537 -5.91113,9.01541 -4.59003,2.83804 -10.69566,-0.0189 z m 1.87632,-3.78645 q 3.99189,1.8462 6.82535,0.0847 2.81707,-1.73357 3.77912,-6.20498 1.19174,-5.31383 -1.69541,-9.81989 -2.85915,-4.48968 -7.21971,-6.47635 -4.33257,-1.9703 -7.08791,-1.17738 -2.74372,0.83728 -3.47293,3.75432 -0.075,0.25669 -0.30893,0.72095 -0.25032,0.49225 0.0345,2.57475 0.75716,5.51442 5.85639,12.85443 1.32842,1.90392 2.20732,2.90631 0.52712,0.38341 1.08224,0.78319 z" />
    <path
       id="path1336"
       style="font-style:normal;font-variant:normal;font-weight:normal;font-stretch:normal;font-size:66.41434479px;font-family:Chilanka;-inkscape-font-specification:'Chilanka, Normal';font-variant-ligatures:normal;font-variant-caps:normal;font-variant-numeric:normal;font-feature-settings:normal;text-align:start;writing-mode:lr-tb;text-anchor:start;stroke-width:1.2;stroke-linecap:round;stroke-miterlimit:4;stroke-dasharray:none;stroke:#000000;stroke-opacity:1"
       d="m 187.07344,226.71686 q -1.05336,0.70072 -2.1986,0.59399 -2.56154,-0.26077 -3.34124,-2.32884 -0.78759,-2.02288 0.53458,-3.86383 1.89281,-3.51044 4.61581,-2.17402 2.14068,1.07186 2.14597,3.84277 0.005,2.77091 -1.75652,3.92993 z m -24.2578,-37.33315 q 0.54063,-0.69708 1.4198,-0.79971 0.85263,-0.084 1.53107,0.43011 0.65191,0.53274 0.83125,1.23908 0.30852,1.56685 5.60228,9.38066 5.26723,7.83246 9.72899,14.01134 0.50348,0.71635 0.38022,1.55609 -0.13114,0.88493 -0.82095,1.36976 -0.6977,0.53002 -1.55609,0.38023 -0.88493,-0.13115 -1.38841,-0.84749 -4.52558,-6.2133 -7.41094,-10.4877 -2.88535,-4.2744 -4.1082,-6.07063 -1.22285,-1.79624 -2.8323,-4.3117 -2.69388,-4.17115 -1.37672,-5.85004 z" />
    <path
       id="path1338"
       style="font-style:normal;font-variant:normal;font-weight:normal;font-stretch:normal;font-size:66.41434479px;font-family:Chilanka;-inkscape-font-specification:'Chilanka, Normal';font-variant-ligatures:normal;font-variant-caps:normal;font-variant-numeric:normal;font-feature-settings:normal;text-align:start;writing-mode:lr-tb;text-anchor:start;stroke-width:1.2;stroke-linecap:round;stroke-miterlimit:4;stroke-dasharray:none;stroke:#000000;stroke-opacity:1"
       d="m 89.664529,228.46825 q -7.405613,-3.25511 -9.64565,-12.06901 -1.129608,-4.42777 0.459213,-9.47592 1.588822,-5.04814 5.711018,-8.15756 2.639686,-1.99778 5.945975,-2.71207 3.27587,-0.72553 6.52005,-0.14903 4.877505,0.83432 8.537065,4.12264 3.6179,3.3075 4.731,8.24776 1.40013,6.22177 -1.68841,11.96033 -3.08854,5.73856 -8.74424,8.03932 -5.655693,2.30075 -11.129697,0.55456 -0.376263,-0.10446 -0.696324,-0.36102 z m 2.127145,-3.60463 q 3.953077,1.18417 8.173195,-0.50618 4.189701,-1.70159 6.567431,-6.07792 2.34732,-4.38757 1.40486,-8.57333 -0.9537,-4.15535 -3.64514,-6.60192 -2.69144,-2.44657 -5.753104,-2.95562 -5.846268,-1.01944 -9.790588,1.98284 -3.059577,2.29206 -4.270864,6.1314 -1.211287,3.83934 -0.356143,7.23225 1.694412,6.64166 7.217377,9.09738 0.243349,0.0899 0.452976,0.2711 z" />
    <path
       id="path1340"
       style="font-style:normal;font-variant:normal;font-weight:normal;font-stretch:normal;font-size:66.41434479px;font-family:Chilanka;-inkscape-font-specification:'Chilanka, Normal';font-variant-ligatures:normal;font-variant-caps:normal;font-variant-numeric:normal;font-feature-settings:normal;text-align:start;writing-mode:lr-tb;text-anchor:start;stroke-width:1.2;stroke-linecap:round;stroke-miterlimit:4;stroke-dasharray:none;stroke:#000000;stroke-opacity:1"
       d="m 42.57522,189.03705 q -1.506529,0.73293 -2.577862,-0.27111 -0.618147,-0.62349 -0.641481,-1.49936 -0.02333,-0.87587 0.575503,-1.47295 4.812209,-5.05096 9.878183,-8.05793 8.403475,-7.43752 9.762899,-10.9881 0.141187,-0.33395 0.151941,-0.47111 -0.18515,-0.86556 0.308346,-1.5859 0.447776,-0.72393 1.26761,-0.91266 0.844487,-0.2098 1.589483,0.26262 0.744996,0.47243 1.017564,1.68986 0.618655,2.67062 -4.183679,8.18237 4.549211,-0.81638 8.434182,0.38525 5.460115,1.64714 7.183751,6.35949 1.702568,4.68769 -1.397332,10.19492 -4.545864,8.10797 -18.452909,14.74598 -0.788452,0.37521 -1.593508,0.0821 -0.850777,-0.29672 -1.204912,-1.06052 -0.375203,-0.78845 -0.07849,-1.63922 0.272061,-0.82971 1.060512,-1.20492 12.509443,-5.82754 16.61426,-13.00405 2.158189,-3.76397 1.114146,-6.58295 -1.044043,-2.81898 -4.457904,-3.86867 -6.310892,-1.94386 -14.668275,2.85215 -2.990163,2.6407 -6.719473,5.61446 z" />
    <path
       id="path1342"
       style="font-style:normal;font-variant:normal;font-weight:normal;font-stretch:normal;font-size:66.41434479px;font-family:Chilanka;-inkscape-font-specification:'Chilanka, Normal';font-variant-ligatures:normal;font-variant-caps:normal;font-variant-numeric:normal;font-feature-settings:normal;text-align:start;writing-mode:lr-tb;text-anchor:start;stroke-width:1.2;stroke-linecap:round;stroke-miterlimit:4;stroke-dasharray:none;stroke:#000000;stroke-opacity:1"
       d="m 22.510779,98.183902 q 2.325275,-7.74803 10.799176,-11.048859 4.25645,-1.662479 9.460975,-0.702769 5.204525,0.95971 8.794601,4.67082 2.305521,2.375632 3.418685,5.569787 1.120601,3.16259 0.945066,6.452919 -0.231738,4.94292 -3.047968,8.97706 -2.840358,3.99513 -7.607463,5.70388 -6.003914,2.15031 -12.077033,-0.21345 -6.073119,-2.36377 -9.048084,-7.69575 -2.974964,-5.33197 -1.911136,-10.978399 0.05768,-0.386212 0.273181,-0.735239 z m 3.837653,1.670481 q -0.691979,4.068197 1.501648,8.049997 2.201063,3.95022 6.835268,5.77507 4.641642,1.79327 8.680774,0.34613 4.007568,-1.45459 6.106726,-4.42495 2.099158,-2.97037 2.230071,-6.07131 0.297024,-5.927043 -3.164977,-9.474709 -2.648928,-2.756395 -6.60756,-3.489192 -3.958632,-0.732797 -7.221536,0.530753 -6.384676,2.493718 -8.146729,8.275489 -0.0595,0.252516 -0.213685,0.482722 z" />
    <path
       id="path1344"
       style="font-style:normal;font-variant:normal;font-weight:normal;font-stretch:normal;font-size:66.41434479px;font-family:Chilanka;-inkscape-font-specification:'Chilanka, Normal';font-variant-ligatures:normal;font-variant-caps:normal;font-variant-numeric:normal;font-feature-settings:normal;text-align:start;writing-mode:lr-tb;text-anchor:start;stroke-width:1.2;stroke-linecap:round;stroke-miterlimit:4;stroke-dasharray:none;stroke:#000000;stroke-opacity:1"
       d="m 50.670269,46.491667 q 0.588281,-0.60488 1.460853,-0.60468 0.894271,-0.0239 1.887139,0.95737 0.990468,0.935471 3.0533,3.054703 2.060433,2.073434 4.759645,4.067471 5.258629,3.949475 9.809282,4.905046 4.526554,0.933871 6.865079,-0.887869 2.360225,-1.84584 2.382726,-5.360226 0.0442,-3.538486 -3.204194,-7.248868 -4.715946,-5.424527 -14.116042,-7.779255 -0.836373,-0.185794 -1.289358,-0.94277 -0.452985,-0.756976 -0.243092,-1.571649 0.207494,-0.860473 0.96447,-1.313458 0.732876,-0.474684 1.571649,-0.243091 10.701654,2.653919 16.297171,9.088613 4.27736,4.942343 4.23516,10.271771 -0.0205,5.305329 -3.969476,8.382528 -3.924874,3.098899 -10.26397,1.75484 -2.78631,-0.588782 -5.685716,-2.021237 4.539451,7.752951 4.058665,12.600195 -0.330991,3.323893 -3.520189,4.248762 -7.222068,1.962834 -26.899327,-14.663938 -0.672378,-0.561783 -0.739675,-1.407855 -0.0697,-0.891872 0.470385,-1.54015 0.561782,-0.672379 1.453654,-0.742076 0.867772,-0.0914 1.54015,0.470385 13.069174,11.02585 19.477967,13.261781 2.45602,0.858673 3.588984,0.569683 0.272391,-0.0602 0.31579,-0.108397 0.0651,-0.0723 0.110996,-0.510983 0.326191,-3.41549 -3.181993,-9.454397 -3.508185,-6.038906 -8.55192,-11.58403 -1.332657,-1.330857 -2.255627,-2.292827 -0.925369,-1.007768 -0.946868,-1.85624 -0.0239,-0.894271 0.564382,-1.499152 z" />
    <path
       id="path1346"
       style="font-style:normal;font-variant:normal;font-weight:normal;font-stretch:normal;font-size:66.41434479px;font-family:Chilanka;-inkscape-font-specification:'Chilanka, Normal';font-variant-ligatures:normal;font-variant-caps:normal;font-variant-numeric:normal;font-feature-settings:normal;text-align:start;writing-mode:lr-tb;text-anchor:start;stroke-width:1.2;stroke-linecap:round;stroke-miterlimit:4;stroke-dasharray:none;stroke:#000000;stroke-opacity:1"
       d="m 149.927,3.7556743 q 8.04615,0.8356468 12.87311,8.5429737 2.42898,3.870565 2.45927,9.162749 0.0303,5.292183 -2.94416,9.512807 -1.90268,2.709031 -4.83239,4.399767 -2.8973,1.69214 -6.16243,2.134882 -4.89908,0.696512 -9.38863,-1.315807 -4.45574,-2.043314 -7.02564,-6.406877 -3.23493,-5.496006 -2.04832,-11.903979 1.18662,-6.407973 5.86835,-10.32738 4.68173,-3.9194071 10.42749,-3.9300342 0.39019,-0.015547 0.77335,0.1308985 z m -0.92351,4.0823055 q -4.12584,0.080842 -7.62728,2.9802502 -3.46905,2.900813 -4.39527,7.794484 -0.89382,4.895075 1.28299,8.592414 2.17822,3.66494 5.48868,5.171722 3.31046,1.506782 6.38119,1.055614 5.87807,-0.816376 8.71589,-4.880625 2.21253,-3.117572 2.19227,-7.143407 -0.0202,-4.025835 -1.87158,-6.99496 -3.64347,-5.8058473 -9.65273,-6.4558281 -0.25919,-0.011234 -0.51416,-0.1196641 z" />
    <path
       id="path1348"
       style="font-style:normal;font-variant:normal;font-weight:normal;font-stretch:normal;font-size:66.41434479px;font-family:Chilanka;-inkscape-font-specification:'Chilanka, Normal';font-variant-ligatures:normal;font-variant-caps:normal;font-variant-numeric:normal;font-feature-settings:normal;text-align:start;writing-mode:lr-tb;text-anchor:start;stroke-width:1.2;stroke-linecap:round;stroke-miterlimit:4;stroke-dasharray:none;stroke:#000000;stroke-opacity:1"
       d="m 206.34084,30.825739 q -0.15075,0.995514 -1.16279,2.18174 -5.97941,10.801258 -6.87625,16.919167 -0.12866,0.863643 -0.8428,1.366086 -0.6844,0.515396 -1.54804,0.38673 -0.83391,-0.115714 -1.36609,-0.842798 -0.51539,-0.684402 -0.38673,-1.548045 0.58091,-3.850185 2.80116,-9.10852 -4.84879,3.334901 -9.1865,4.522477 -2.64866,0.720786 -4.82041,0.02219 -2.41255,-0.308282 -4.31612,-1.70361 -1.87383,-1.382376 -2.81864,-3.598045 -1.83929,-4.303292 0.0142,-10.181264 1.89618,-5.89475 6.6976,-9.851631 5.73428,-4.717764 12.91777,-3.993378 6.31985,0.59572 9.65006,4.805755 3.35995,4.222987 1.24357,10.623142 z m -3.98144,-1.416305 q 1.36215,-4.181898 -0.72151,-6.787634 -2.05394,-2.592783 -6.60765,-3.020359 -5.41735,-0.556243 -9.55114,2.84256 -4.12085,3.369074 -5.57897,7.933634 -1.44518,4.53483 -0.3326,7.177326 1.15526,2.625718 4.13798,3.00555 0.26374,0.04416 0.75237,0.22168 0.51836,0.190468 2.55269,-0.338124 5.38651,-1.402713 12.07337,-7.332609 1.73383,-1.543845 2.62548,-2.534917 0.31851,-0.568688 0.64998,-1.167107 z" />
    <path
       id="path1350"
       style="font-style:normal;font-variant:normal;font-weight:normal;font-stretch:normal;font-size:66.41434479px;font-family:Chilanka;-inkscape-font-specification:'Chilanka, Normal';font-variant-ligatures:normal;font-variant-caps:normal;font-variant-numeric:normal;font-feature-settings:normal;text-align:start;writing-mode:lr-tb;text-anchor:start;stroke-width:1.2;stroke-linecap:round;stroke-miterlimit:4;stroke-dasharray:none;stroke:#000000;stroke-opacity:1"
       d="m 241.1234,80.229957 q -1.27581,1.146181 -2.08737,2.712766 -2.17392,3.989031 -0.0111,9.180173 2.20633,5.205629 9.30009,10.539974 0.66732,0.53635 0.78367,1.42096 0.14535,0.87011 -0.391,1.53743 -0.52184,0.69632 -1.40646,0.81267 -0.8411,0.13083 -1.53742,-0.391 -7.99319,-6.044641 -10.78017,-12.700318 -2.77246,-6.626678 0.31446,-12.414374 2.65216,-4.917376 8.42344,-7.007895 5.77127,-2.090518 11.73259,-0.105866 7.67285,2.578626 11.82368,10.872596 2.10444,4.204985 1.39516,7.859912 -0.83957,4.264086 -4.84174,5.759341 -3.98766,1.524255 -9.03563,-1.316391 -7.4559,-4.173997 -13.50799,-16.266953 -0.1161,-0.231999 -0.17421,-0.493025 z m 3.37834,-2.089632 q 0.36267,0.289918 0.56586,0.695917 5.47155,10.93296 11.82502,14.498255 3.32179,1.855106 5.61289,0.998602 1.63856,-0.638724 2.02935,-2.756253 0.4343,-2.103044 -1.00252,-4.974033 -3.39614,-6.785976 -9.40097,-8.785114 -4.87349,-1.62249 -9.62963,0.322626 z" />
    <path
       id="path1352"
       style="font-style:normal;font-variant:normal;font-weight:normal;font-stretch:normal;font-size:66.41434479px;font-family:Chilanka;-inkscape-font-specification:'Chilanka, Normal';font-variant-ligatures:normal;font-variant-caps:normal;font-variant-numeric:normal;font-feature-settings:normal;text-align:start;writing-mode:lr-tb;text-anchor:start;stroke-width:1.2;stroke-linecap:round;stroke-miterlimit:4;stroke-dasharray:none;stroke:#000000;stroke-opacity:1"
       d="m 270.78274,140.95578 q -0.93325,0.37792 -2.46972,0.11216 -12.3405,0.3637 -18.06067,2.71165 -0.80854,0.32968 -1.60489,-0.0285 -0.79234,-0.32595 -1.12201,-1.1345 -0.32566,-0.77637 0.0284,-1.6049 0.32596,-0.79233 1.13451,-1.12201 3.60828,-1.46344 9.26379,-2.23465 -5.34116,-2.47071 -8.5745,-5.59665 -1.97057,-1.91097 -2.47696,-4.1354 -0.96494,-2.23256 -0.73522,-4.58154 0.23373,-2.31681 1.65799,-4.25932 2.76404,-3.77642 8.76559,-5.17907 6.03774,-1.3745 11.8898,0.73832 6.98225,2.52732 10.02188,9.07621 2.70995,5.74035 0.78634,10.75178 -1.91959,5.04361 -8.50438,6.48638 z m -0.81172,-4.14715 q 4.29198,-0.96053 5.4711,-4.08161 1.18315,-3.08891 -0.77092,-7.22421 -2.28373,-4.94385 -7.3153,-6.7669 -4.99938,-1.82707 -9.66948,-0.754 -4.63792,1.06906 -6.34382,3.37352 -1.66969,2.33263 -0.47559,5.09215 0.0965,0.2494 0.19293,0.76026 0.10045,0.54303 1.59245,2.02352 3.95319,3.91847 12.46388,6.6472 2.21213,0.70432 3.51933,0.96602 0.65162,-0.016 1.33542,-0.036 z" />
    <path
       id="path1354"
       style="font-style:normal;font-variant:normal;font-weight:normal;font-stretch:normal;font-size:66.41434479px;font-family:Chilanka;-inkscape-font-specification:'Chilanka, Normal';font-variant-ligatures:normal;font-variant-caps:normal;font-variant-numeric:normal;font-feature-settings:normal;text-align:start;writing-mode:lr-tb;text-anchor:start;stroke-width:1.2;stroke-linecap:round;stroke-miterlimit:4;stroke-dasharray:none;stroke:#000000;stroke-opacity:1"
       d="m 246.28986,222.29062 q -0.97938,-0.2336 -2.07668,-1.34145 -10.26247,-6.86309 -16.28376,-8.26921 -0.84983,-0.20055 -1.2907,-0.95426 -0.45626,-0.72517 -0.2557,-1.575 0.18515,-0.82129 0.95425,-1.29069 0.72517,-0.45626 1.575,-0.25571 3.788,0.90136 8.84189,3.55423 -2.91705,-5.11108 -3.73713,-9.53302 -0.49641,-2.69972 0.38164,-4.80533 0.50927,-2.37825 2.05913,-4.15825 1.53447,-1.75146 3.82149,-2.50737 4.44223,-1.47239 10.1443,0.86693 5.71521,2.38325 9.25603,7.49923 4.22089,6.10928 2.89736,13.20685 -1.12297,6.24775 -5.59714,9.21364 -4.48958,2.99442 -10.68998,0.34941 z m 1.74481,-3.84882 q 4.05311,1.70763 6.82422,-0.15046 2.75571,-1.82955 3.56319,-6.33144 1.00804,-5.35172 -2.03257,-9.75567 -3.01208,-4.38856 -7.43847,-6.22388 -4.39785,-1.81993 -7.12425,-0.93259 -2.71325,0.93127 -3.34158,3.87169 -0.0661,0.25912 -0.28392,0.73116 -0.23321,0.50058 0.12313,2.57204 0.94661,5.48508 6.29559,12.64512 1.39319,1.85705 2.3061,2.82857 0.54001,0.36503 1.10856,0.74546 z" />
    <path
       id="path1356"
       style="font-style:normal;font-variant:normal;font-weight:normal;font-stretch:normal;font-size:66.41434479px;font-family:Chilanka;-inkscape-font-specification:'Chilanka, Normal';font-variant-ligatures:normal;font-variant-caps:normal;font-variant-numeric:normal;font-feature-settings:normal;text-align:start;writing-mode:lr-tb;text-anchor:start;stroke-width:1.2;stroke-linecap:round;stroke-miterlimit:4;stroke-dasharray:none;stroke:#000000;stroke-opacity:1"
       d="m 226.99334,255.22066 -3.76026,-3.11024 q -23.26936,-20.02717 -25.49916,-33.04376 -0.97566,-5.60446 2.86895,-9.3295 2.08081,-2.00242 5.54862,-3.24523 0.82143,-0.28711 1.62957,0.091 0.78555,0.4014 1.09525,1.19957 0.26385,0.79883 -0.1143,1.60697 -0.4014,0.78555 -1.19957,1.09525 -4.58631,1.60302 -5.50474,4.68937 -1.39959,4.69865 4.64358,13.41733 3.98159,5.7214 10.35769,12.09607 -2.31679,-4.78235 -2.92891,-9.03903 -0.94243,-6.4764 2.52403,-9.3933 3.42061,-2.91624 9.37201,-0.52576 8.34991,3.31888 18.83189,16.07822 0.53699,0.65727 0.45791,1.52987 -0.0791,0.87261 -0.73635,1.4096 -0.67987,0.56025 -1.55248,0.48117 -0.8726,-0.0791 -1.43285,-0.75894 -9.80476,-11.92063 -17.1631,-14.86404 -7.33507,-2.9208 -6.13609,5.43239 1.32526,9.15402 11.58925,21.11386 0.55958,0.63401 0.4805,1.50662 -0.0784,0.91846 -0.66723,1.43152 -0.58882,0.51307 -1.34512,0.54697 -0.7563,0.0339 -1.35909,-0.41602 z" />
    <path
       id="path1358"
       style="font-style:normal;font-variant:normal;font-weight:normal;font-stretch:normal;font-size:66.41434479px;font-family:Chilanka;-inkscape-font-specification:'Chilanka, Normal';font-variant-ligatures:normal;font-variant-caps:normal;font-variant-numeric:normal;font-feature-settings:normal;text-align:start;writing-mode:lr-tb;text-anchor:start;stroke-width:1.2;stroke-linecap:round;stroke-miterlimit:4;stroke-dasharray:none;stroke:#000000;stroke-opacity:1"
       d="m 158.47259,292.66863 q -7.99889,1.20689 -14.6029,-5.04527 -3.32125,-3.13856 -4.67648,-8.25437 -1.35522,-5.1158 0.46691,-9.94703 1.16328,-3.09933 3.57595,-5.47015 2.38095,-2.36407 5.43101,-3.61074 4.56833,-1.90172 9.41885,-1.07839 4.82557,0.8618 8.40676,4.44233 4.50872,4.51023 4.96541,11.01113 0.4567,6.50089 -3.09375,11.46825 -3.55044,4.96737 -9.11028,6.4172 -0.37385,0.11281 -0.78148,0.067 z m -0.12873,-4.18348 q 3.974,-1.11196 6.63735,-4.79615 2.63163,-3.67743 2.30224,-8.64708 -0.3611,-4.96289 -3.39482,-7.99692 -3.02696,-3.00232 -6.60935,-3.63164 -3.58238,-0.62932 -6.44214,0.5768 -5.48606,2.26303 -7.21511,6.90865 -1.36089,3.57247 -0.33264,7.46483 1.02825,3.89235 3.56441,6.30295 4.98187,4.70784 10.96232,3.83153 0.25373,-0.0541 0.52774,-0.013 z" />
    <path
       id="path1360"
       style="font-style:normal;font-variant:normal;font-weight:normal;font-stretch:normal;font-size:66.41434479px;font-family:Chilanka;-inkscape-font-specification:'Chilanka, Normal';font-variant-ligatures:normal;font-variant-caps:normal;font-variant-numeric:normal;font-feature-settings:normal;text-align:start;writing-mode:lr-tb;text-anchor:start;stroke-width:1.2;stroke-linecap:round;stroke-miterlimit:4;stroke-dasharray:none;stroke:#000000;stroke-opacity:1"
       d="m 109.28815,295.37671 q -7.99142,-1.25538 -12.408627,-9.20464 -2.223193,-3.99232 -1.976618,-9.27885 0.246576,-5.28652 3.437718,-9.34578 2.041787,-2.6058 5.055917,-4.14097 2.98185,-1.53827 6.26566,-1.80962 4.92882,-0.4393 9.30695,1.8051 4.34276,2.27359 6.6809,6.7656 2.94302,5.6577 1.42285,11.99483 -1.52018,6.33713 -6.40052,10.00628 -4.88033,3.66915 -10.61878,3.37922 -0.39047,-0.005 -0.76545,-0.17117 z m 1.13578,-4.02841 q 4.12442,0.13508 7.77273,-2.57721 3.61603,-2.71538 4.79696,-7.55391 1.14865,-4.84162 -0.83178,-8.64776 -1.98353,-3.77386 -5.21065,-5.45174 -3.22711,-1.67788 -6.31724,-1.38795 -5.91272,0.50779 -8.95925,4.41803 -2.37257,2.99758 -2.562922,7.01896 -0.190351,4.02138 1.503132,7.08328 3.33479,5.98848 9.30182,6.9519 0.25825,0.0248 0.5072,0.1464 z" />
  </g>
</svg>
