<?xml version="1.0" encoding="UTF-8" standalone="no"?>
<svg
   xmlns:dc="http://purl.org/dc/elements/1.1/"
   xmlns:cc="http://creativecommons.org/ns#"
   xmlns:rdf="http://www.w3.org/1999/02/22-rdf-syntax-ns#"
   xmlns:svg="http://www.w3.org/2000/svg"
   xmlns="http://www.w3.org/2000/svg"
   xmlns:xlink="http://www.w3.org/1999/xlink"
   id="svg8"
   version="1.1"
   viewBox="0 0 300 300"
   height="125px"
   width="125px">
  <defs
     id="defs2" />
  <metadata
     id="metadata5">
    <rdf:RDF>
      <cc:Work
         rdf:about="">
        <dc:format>image/svg+xml</dc:format>
        <dc:type
           rdf:resource="http://purl.org/dc/dcmitype/StillImage" />
        <dc:title></dc:title>
      </cc:Work>
    </rdf:RDF>
  </metadata>
  <g
     transform="translate(0,3)"
     id="layer1">
    <g
       style="stroke-width:6.50087118;stroke-miterlimit:4;stroke-dasharray:none"
       transform="matrix(0.92295324,0,0,0.92295324,5.5742927,-2.9249673)"
       id="g1008">
      <path
         d="m 172.50716,33.857583 c -1.64124,-5.160004 -8.9184,-6.250934 -11.86421,-2.282144 m -20.18582,2.282144 c 1.64124,-5.160004 8.91839,-6.250934 11.86423,-2.282144 m 33.41434,6.132894 a 29.253537,29.253537 0 0 1 -29.25355,29.25353 29.253537,29.253537 0 0 1 -29.25354,-29.25353 29.253537,29.253537 0 0 1 29.25354,-29.253534 29.253537,29.253537 0 0 1 29.25355,29.253534 z m -19.99641,11.80983 c -3.70078,6.85593 -15.4128,6.39903 -18.51573,0"
         style="fill:none;stroke:#000000;stroke-width:6.50087118;stroke-linecap:round;stroke-linejoin:miter;stroke-miterlimit:4;stroke-dasharray:none;stroke-opacity:1"
         id="use879" />
      <use
         style="stroke-width:6.50087118;stroke-miterlimit:4;stroke-dasharray:none"
         x="0"
         y="0"
         xlink:href="#use879"
         id="use983"
         width="100%"
         height="100%"
         transform="translate(-1.4285714e-6)" />
      <use
         style="stroke-width:6.50087118;stroke-miterlimit:4;stroke-dasharray:none"
         x="0"
         y="0"
         xlink:href="#use879"
         transform="rotate(45,156.48215,162.44048)"
         id="use985"
         width="100%"
         height="100%" />
      <use
         style="stroke-width:6.50087118;stroke-miterlimit:4;stroke-dasharray:none"
         x="0"
         y="0"
         xlink:href="#use879"
         transform="rotate(90,156.48215,162.44048)"
         id="use987"
         width="100%"
         height="100%" />
      <use
         style="stroke-width:6.50087118;stroke-miterlimit:4;stroke-dasharray:none"
         x="0"
         y="0"
         xlink:href="#use879"
         transform="rotate(135,156.48215,162.44048)"
         id="use989"
         width="100%"
         height="100%" />
      <use
         style="stroke-width:6.50087118;stroke-miterlimit:4;stroke-dasharray:none"
         x="0"
         y="0"
         xlink:href="#use879"
         transform="rotate(180,156.48215,162.44048)"
         id="use991"
         width="100%"
         height="100%" />
      <use
         style="stroke-width:6.50087118;stroke-miterlimit:4;stroke-dasharray:none"
         x="0"
         y="0"
         xlink:href="#use879"
         transform="rotate(-135,156.48215,162.44048)"
         id="use993"
         width="100%"
         height="100%" />
      <use
         style="stroke-width:6.50087118;stroke-miterlimit:4;stroke-dasharray:none"
         x="0"
         y="0"
         xlink:href="#use879"
         transform="rotate(-90,156.48215,162.44048)"
         id="use995"
         width="100%"
         height="100%" />
      <use
         style="stroke-width:6.50087118;stroke-miterlimit:4;stroke-dasharray:none"
         x="0"
         y="0"
         xlink:href="#use879"
         transform="rotate(-45,156.48215,162.44048)"
         id="use997"
         width="100%"
         height="100%" />
    </g>
  </g>
</svg>
