<?xml version="1.0" encoding="UTF-8" standalone="no"?>
<svg
   xmlns:dc="http://purl.org/dc/elements/1.1/"
   xmlns:cc="http://creativecommons.org/ns#"
   xmlns:rdf="http://www.w3.org/1999/02/22-rdf-syntax-ns#"
   xmlns:svg="http://www.w3.org/2000/svg"
   xmlns="http://www.w3.org/2000/svg"
   width="125px"
   height="125px"
   viewBox="0 0 300 300"
   version="1.1"
   id="svg1162">
  <defs
     id="defs1156" />
  <metadata
     id="metadata1159">
    <rdf:RDF>
      <cc:Work
         rdf:about="">
        <dc:format>image/svg+xml</dc:format>
        <dc:type
           rdf:resource="http://purl.org/dc/dcmitype/StillImage" />
        <dc:title></dc:title>
      </cc:Work>
    </rdf:RDF>
  </metadata>
  <g
     transform="translate(0.37797619,9.8035714)"
     id="g1785">
    <g
       id="g1875">
      <g
         id="g1869"
         transform="matrix(0.93650693,0,0,0.93650693,52.045632,45.324822)"
         style="stroke-width:6.40678644;stroke-miterlimit:4;stroke-dasharray:none">
        <g
           transform="translate(116.41637)"
           id="g1829"
           style="stroke-width:6.40678644;stroke-miterlimit:4;stroke-dasharray:none" />
        <path
           d="M 87.982394,199.79791 C 57.716639,174.35577 18.633428,162.04028 -25.072375,174.83165 M 88.065681,134.6931 C 57.799927,109.25096 18.716716,96.935476 -24.989086,109.72684 m 144.725946,90.40992 c 31.42977,-23.69613 56.99898,-39.62808 98.39877,-30.29571 m -98.40051,5.97431 c 30.26575,-25.44215 69.34896,-37.75764 113.05477,-24.96628 m -113.05477,3.58594 c 30.26575,-25.44214 69.34896,-37.75762 113.05477,-24.96626 m -113.05298,3.58818 c 22.08766,-16.5997 40.52139,-25.36464 60.0466,-28.1548 9.05283,-1.29363 16.8611,-3.15187 28.04191,-0.57995 m -88.0903,7.38422 C 150.00087,86.264255 189.08408,73.948774 232.78989,86.740135 M 119.73512,90.326076 C 150.00087,64.883931 189.08408,52.568447 232.78989,65.359808 M 119.73512,68.945735 C 150.00087,43.503598 189.08408,31.188114 232.78989,43.979474 M 119.73512,47.565408 C 150.00087,22.123268 189.08408,9.8077837 232.78989,22.599143 M 119.73512,26.185078 C 150.00087,0.74293743 189.08408,-11.572547 232.78989,1.2188131 M 104.19184,9.2267887 C 155.69619,-35.38466 202.71979,-30.708193 249.2788,-20.921151 V 197.6514 c -81.089,-17.22294 -106.49181,11.9593 -145.08694,30.14793 z m 131.91605,186.3048813 -0.0188,16.25158 c -81.089,-17.22294 -93.30208,-2.17255 -131.89721,16.01608 V 9.2267887 M 88.148958,178.09631 C 57.883203,152.65416 18.799992,140.33868 -24.90581,153.13004 M 65.856821,143.4405 C 29.689665,124.03232 12.074093,123.93339 -24.822522,131.42844 M 88.315523,112.9915 C 58.049768,87.549363 18.966556,75.23388 -24.739245,88.025226 M 88.398809,91.289902 C 58.133056,65.847761 19.049844,53.532277 -24.655957,66.323639 M 51.739276,48.626061 C 22.787879,37.350748 3.4413457,37.62182 -24.572681,44.622034 M 88.565365,47.886685 C 58.299608,22.444539 19.216397,10.129055 -24.489406,22.920414 M 88.648651,26.185078 C 58.382896,0.74293743 19.299685,-11.572547 -24.406117,1.2188131 M 104.19186,9.2267887 C 52.687516,-35.38466 5.6639113,-30.708193 -40.895095,-20.921151 V 197.6514 C 40.19391,180.42846 65.596712,209.6107 104.19184,227.79933 Z M -27.724182,195.53167 l 0.01882,16.25158 C 53.38363,194.56031 65.596707,209.6107 104.19184,227.79933 V 9.2267887"
           style="fill:none;stroke:#000000;stroke-width:6.40678644;stroke-linecap:round;stroke-linejoin:round;stroke-miterlimit:4;stroke-dasharray:none;stroke-opacity:1"
           id="path1844" />
      </g>
    </g>
  </g>
</svg>
