<?xml version="1.0" encoding="UTF-8" standalone="no"?>
<svg
   xmlns:dc="http://purl.org/dc/elements/1.1/"
   xmlns:cc="http://creativecommons.org/ns#"
   xmlns:rdf="http://www.w3.org/1999/02/22-rdf-syntax-ns#"
   xmlns:svg="http://www.w3.org/2000/svg"
   xmlns="http://www.w3.org/2000/svg"
   id="svg8"
   version="1.1"
   viewBox="0 0 300 300"
   height="125px"
   width="125px">
  <defs
     id="defs2" />
  <metadata
     id="metadata5">
    <rdf:RDF>
      <cc:Work
         rdf:about="">
        <dc:format>image/svg+xml</dc:format>
        <dc:type
           rdf:resource="http://purl.org/dc/dcmitype/StillImage" />
        <dc:title></dc:title>
      </cc:Work>
    </rdf:RDF>
  </metadata>
  <g
     transform="translate(0,3)"
     id="layer1">
    <g
       transform="matrix(0.97228139,0,0,0.95665908,-4.4749515,6.881661)"
       id="g892">
      <g
         id="g887"
         transform="matrix(0.70232118,-0.65493462,0.65493462,0.70232118,144.90903,11.168832)">
        <path
           id="path815"
           d="m -174.8902,134.96228 c -0.6965,-2.1743 -0.74851,-0.93428 -1.2867,-3.17472 -1.68628,-7.01993 -2.57946,-14.34855 -2.57946,-21.88577 0,-51.561374 41.79875,-93.360127 93.36012,-93.360126 51.561373,0 93.3601248,41.798753 93.3601231,93.360126 -3e-7,7.60356 -0.9089685,14.99482 -2.6241698,22.07105 -0.4905655,2.02387 -0.1021419,0.99817 -0.7222068,2.9681 m -8.1207014,19.59572 c -1.0054667,2.0509 -0.099563,0.46874 -1.247651,2.43167 -16.1966931,27.69213 -46.2487431,46.29358 -80.6453941,46.29358 -34.20006,0 -64.10504,-18.38942 -80.36633,-45.81966 -1.37336,-2.31664 -0.47604,-0.54003 -1.64913,-2.98002"
           style="fill:none;fill-opacity:1;stroke:#000000;stroke-width:6;stroke-linecap:round;stroke-linejoin:round;stroke-miterlimit:4;stroke-dasharray:none;stroke-opacity:1;paint-order:fill markers stroke" />
        <path
           id="path846"
           d="m 45.423828,297.47266 c 3.351819,9.79961 6.328578,19.73147 8.923828,29.76757 54.775554,9.70362 109.715684,20.49799 160.919924,42.47852 20.35826,9.59761 42.53955,20.52905 53.45312,41.21875 7.1913,14.07791 3.27205,31.69149 -7.59179,42.75977 -19.80159,20.93178 -47.67063,31.30808 -74.11719,40.95703 -70.13499,23.41107 -143.548529,34.41754 -216.734376,43.23828 -151.922564,16.97079 -305.477194,19.46823 -458.113284,10.97461 -98.4909,-6.05447 -197.20304,-16.16067 -293.22265,-39.2461 -37.96192,-9.90841 -76.87325,-20.42744 -109.94336,-42.41601 -14.64529,-9.96798 -29.7923,-25.77409 -26.79688,-45.03906 3.54546,-20.96395 22.26282,-34.16823 39.51953,-43.85938 44.66669,-23.61938 94.69334,-34.55397 143.78907,-44.80664 10.7309,-2.33838 21.55543,-4.10464 32.3789,-5.85352 2.74833,-10.11199 5.93999,-20.10451 9.55274,-29.95117 -92.32356,10.83794 -184.53455,25.63807 -273.52344,52.96875 -36.30937,11.87647 -73.22997,24.83041 -104.39647,47.49219 -12.7195,10.47243 -27.5608,23.56743 -26.9903,41.57227 1.6245,18.43831 17.3376,31.44021 31.2989,41.59765 37.4213,25.03329 80.95251,38.77849 123.80271,51.31836 111.76339,30.70273 227.23121,45.23726 342.48242,55.11914 68.12058,5.52873 136.43529,8.91996 204.76563,10.16406 70.20924,-0.10318 140.44251,0.0567 210.63086,-1.70312 136.883024,-5.96901 273.980934,-17.80109 408.29687,-45.74805 58.39672,-12.80368 117.17131,-27.44442 170.98829,-54.13476 20.65179,-11.05395 42.67543,-23.78857 54.01953,-45.16992 7.30238,-13.95595 0.61239,-30.73019 -10.35743,-40.63282 C 418.61692,389.54753 391.39177,378.33498 365.59961,366.62305 300.25827,340.74465 231.08584,326.265 162.0918,314.01562 123.36925,307.47354 84.456618,301.8441 45.423828,297.47266 Z"
           style="fill:#000000;fill-opacity:1;stroke:#000000;stroke-width:22.90739441;stroke-linecap:round;stroke-linejoin:round;stroke-miterlimit:4;stroke-dasharray:none;stroke-opacity:0.99090911;paint-order:fill markers stroke"
           transform="matrix(0.26458333,0,0,0.26458333,0,-3)" />
      </g>
    </g>
  </g>
</svg>
