<?xml version="1.0" encoding="UTF-8" standalone="no"?>
<svg
   xmlns:dc="http://purl.org/dc/elements/1.1/"
   xmlns:cc="http://creativecommons.org/ns#"
   xmlns:rdf="http://www.w3.org/1999/02/22-rdf-syntax-ns#"
   xmlns:svg="http://www.w3.org/2000/svg"
   xmlns="http://www.w3.org/2000/svg"
   id="svg1162"
   version="1.1"
   viewBox="0 0 300 300"
   height="125px"
   width="125px">
  <defs
     id="defs1156" />
  <metadata
     id="metadata1159">
    <rdf:RDF>
      <cc:Work
         rdf:about="">
        <dc:format>image/svg+xml</dc:format>
        <dc:type
           rdf:resource="http://purl.org/dc/dcmitype/StillImage" />
        <dc:title></dc:title>
      </cc:Work>
    </rdf:RDF>
  </metadata>
  <g
     transform="translate(0,3)"
     id="layer1">
    <g
       transform="translate(0.37797619,6.8035714)"
       id="g1785">
      <g
         style="stroke-width:6.40678655;stroke-miterlimit:4;stroke-dasharray:none"
         transform="matrix(0.93650693,0,0,0.93650693,-419.95235,116.95306)"
         id="g1869">
        <g
           style="stroke-width:6.40678655;stroke-miterlimit:4;stroke-dasharray:none"
           id="g1829"
           transform="translate(116.41637)" />
      </g>
      <g
         id="g1930"
         transform="matrix(-0.93650693,0,0,0.93650693,-223.7305,116.95306)"
         style="stroke-width:6.40678655;stroke-miterlimit:4;stroke-dasharray:none;stroke-linejoin:round">
        <g
           transform="translate(116.41637)"
           id="g1922"
           style="stroke-width:6.40678655;stroke-miterlimit:4;stroke-dasharray:none;stroke-linejoin:round" />
        <path
           d="m -398.68379,3.5428015 0.0188,-13.3535308 c 29.56114,-35.9025437 73.13274,-54.7164007 131.4936,-50.2526047 l 0.0735,10.255253 m -131.5859,53.3508825 0.0188,-13.3535308 c 62.57821,-47.8670727 84.3845,-43.2434047 139.16204,-37.3322427 v 9.970759 m -139.16204,27.3614837 c 51.50435,-36.6561497 98.52795,-32.8136097 145.08696,-24.7718337 V 145.01323 c -81.089,-14.15167 -106.49181,9.82667 -145.08694,24.77183 z m 0.0188,13.3535308 -0.0188,-13.3535308 C -428.22613,-45.713273 -471.79773,-64.52713 -530.15859,-60.063334 l -0.0735,10.255253 m 131.5859,53.3508825 -0.0188,-13.3535308 C -461.2432,-57.677802 -483.04949,-53.054134 -537.82703,-47.142972 v 9.970759 m 139.16204,27.3614837 C -450.16934,-46.466879 -497.19294,-42.624339 -543.75195,-34.582563 V 145.01323 c 81.089,-14.15167 106.49181,9.82667 145.08694,24.77183 z m -26.70667,-61.7208627 c 2.73523,-8.926672 14.86307,-10.813953 19.77246,-3.948047 m 33.64092,3.948047 c -2.73524,-8.926672 -14.86305,-10.813953 -19.77247,-3.948047 m 38.33802,29.424703 c 2.24531,-5.816299 3.48058,-12.165884 3.48059,-18.81496 0,-27.949957 -21.8274,-50.607874 -48.75284,-50.607864 -26.92545,-1e-5 -48.75286,22.657907 -48.75285,50.607864 0,5.550142 1.43147,13.032032 3.02187,18.028847 m 30.30338,2.401864 c 6.16758,11.860588 25.68639,11.070161 30.85762,0"
           style="fill:none;stroke:#000000;stroke-width:6.40678655;stroke-linecap:round;stroke-linejoin:round;stroke-miterlimit:4;stroke-dasharray:none;stroke-opacity:1"
           id="path1928" />
      </g>
    </g>
  </g>
</svg>
